<svg xmlns="http://www.w3.org/2000/svg" data-name="Layer 1" viewBox="0 0 818 618.2">
    <path fill="#feb8b8" d="M384.4 519s10.4-17.1 23.8-7 38.1 27 38.1 27 5 11-8 6.9-56-10.7-56-10.7Z"
          data-name="Path 164"/>
    <path fill="#f0f0f0"
          d="M93.5 410.5c3.3-26.7 19.8-53 45.2-61.7a123.9 123.9 0 0 0 0 85c4 10.6 9.4 22 5.7 32.6a27.7 27.7 0 0 1-14.1 15 82.2 82.2 0 0 1-20 6l-1.4 1.2C98 464 90 437.1 93.5 410.5Z"/>
    <path fill="#fff"
          d="M139 349.3a105.9 105.9 0 0 0-26.3 59.6 45.6 45.6 0 0 0 .5 14.3 26.1 26.1 0 0 0 6.5 12.1c3 3.2 6.3 6.2 8.4 10a16 16 0 0 1 .8 13.1 41.6 41.6 0 0 1-9.2 13.8c-4.2 4.5-8.5 9.2-10.3 15.3-.2.7-1.3.3-1.1-.4 3-10.5 13.3-16.5 18.1-26 2.3-4.4 3.3-9.5 1.1-14.2-1.8-4.1-5.3-7.1-8.3-10.4a27.9 27.9 0 0 1-6.8-11.6 42.1 42.1 0 0 1-1-14.2 102.7 102.7 0 0 1 7.4-31.2 107.7 107.7 0 0 1 19.4-31c.5-.6 1.3.3.8.8Z"/>
    <path fill="#fff"
          d="M113 401.7a15.9 15.9 0 0 1-12-16.6c0-.8 1.2-.7 1 0a14.7 14.7 0 0 0 11.4 15.5c.7.2.3 1.3-.4 1.1ZM118 433.9a30.6 30.6 0 0 0 13.7-17.7c.2-.7 1.3-.3 1.1.4a31.8 31.8 0 0 1-14.3 18.3c-.6.4-1.2-.6-.5-1ZM124.6 369.2a9 9 0 0 0 8.5-.4c.7-.4 1.2.7.5 1a10 10 0 0 1-9.4.5.6.6 0 0 1-.4-.7.6.6 0 0 1 .8-.4Z"/>
    <path fill="#f0f0f0"
          d="m216.3 396.5-1.2.8A118.4 118.4 0 0 0 200 409l-1.1 1a124.8 124.8 0 0 0-27.1 37.1 121.2 121.2 0 0 0-6.7 17.2c-2.4 8.1-4.4 17.1-9.3 23.8a20.8 20.8 0 0 1-1.6 2h-43.8l-.3-.2-1.8.1.2-1 .2-.5v-.4l.1-.3 1.4-5.4c3.6-13.7 8.4-27.1 15-39.4l.6-1.1a115.7 115.7 0 0 1 10.4-15.8 102.3 102.3 0 0 1 6.8-7.8 85 85 0 0 1 21.3-16 67.5 67.5 0 0 1 52-6Z"/>
    <path fill="#fff"
          d="M216.2 397a105.9 105.9 0 0 0-56.9 31.7 45.6 45.6 0 0 0-8.2 11.8 26.1 26.1 0 0 0-2 13.6c.3 4.3 1.2 8.7.6 13a16 16 0 0 1-7.3 11 41.6 41.6 0 0 1-15.6 5.4c-6 1.1-12.3 2.2-17.4 6-.6.5-1.3-.5-.7-1 8.8-6.5 20.6-5.1 30.2-9.8 4.4-2.1 8.3-5.7 9.4-10.7 1-4.4 0-8.9-.4-13.3a27.9 27.9 0 0 1 1.6-13.3 42.1 42.1 0 0 1 7.7-12 102.7 102.7 0 0 1 24.7-20.4 107.7 107.7 0 0 1 34.2-13.2c.8-.1.8 1 .1 1.2Z"/>
    <path fill="#fff"
          d="M163.9 423.2a15.9 15.9 0 0 1 .4-20.5c.5-.6 1.4.1.9.7a14.7 14.7 0 0 0-.3 19.1c.4.6-.5 1.3-1 .7ZM148.5 451.9a30.6 30.6 0 0 0 21.6-5.9c.6-.4 1.2.6.6 1a31.8 31.8 0 0 1-22.4 6c-.7 0-.5-1.2.2-1.1ZM192.7 404.2a9 9 0 0 0 7 4.8c.8 0 .6 1.3-.1 1.2a10 10 0 0 1-7.9-5.3.6.6 0 0 1 .2-.8.6.6 0 0 1 .8.1Z"/>
    <path fill="#f0f0f0"
          d="M447 587.3c1.2-10.4 7.6-20.6 17.5-24a48 48 0 0 0 0 33c1.5 4.1 3.6 8.5 2.2 12.7a10.7 10.7 0 0 1-5.5 5.7 31.9 31.9 0 0 1-7.8 2.4l-.5.5c-4.2-9.6-7.2-20-6-30.3Z"/>
    <path fill="#fff"
          d="M464.6 563.6a41 41 0 0 0-10.2 23 17.7 17.7 0 0 0 .2 5.6 10.1 10.1 0 0 0 2.5 4.7 21 21 0 0 1 3.3 3.9 6.2 6.2 0 0 1 .3 5 16.1 16.1 0 0 1-3.6 5.4c-1.6 1.8-3.3 3.6-4 6 0 .2-.5 0-.4-.2 1.2-4.1 5.1-6.4 7-10a6.3 6.3 0 0 0 .5-5.6 16.3 16.3 0 0 0-3.3-4 10.8 10.8 0 0 1-2.6-4.5 16.3 16.3 0 0 1-.4-5.5 39.8 39.8 0 0 1 2.9-12.1 41.8 41.8 0 0 1 7.5-12c.2-.3.5 0 .3.3Z"/>
    <path fill="#fff"
          d="M454.5 583.9a6.2 6.2 0 0 1-4.7-6.5c0-.2.5-.2.5 0a5.7 5.7 0 0 0 4.4 6c.3.1.1.6-.2.5ZM456.5 596.3a11.9 11.9 0 0 0 5.3-6.8c0-.3.5-.1.4.2a12.3 12.3 0 0 1-5.5 7c-.3.2-.5-.2-.2-.4ZM459 571.3a3.5 3.5 0 0 0 3.3-.2c.3-.1.5.3.2.4a3.9 3.9 0 0 1-3.6.2.2.2 0 0 1-.2-.3.2.2 0 0 1 .3-.1Z"/>
    <path fill="#f0f0f0"
          d="M494.6 581.9c-.2 0-.4.2-.5.3a45.9 45.9 0 0 0-5.9 4.5l-.4.4a48.4 48.4 0 0 0-10.5 14.4 47 47 0 0 0-2.6 6.7c-1 3.1-1.7 6.6-3.6 9.2a8 8 0 0 1-.6.8h-17.8v-.4l.1-.2v-.2l.1-.1.5-2.1a69 69 0 0 1 5.8-15.3l.3-.4a44.8 44.8 0 0 1 4-6.1 39.6 39.6 0 0 1 2.7-3 33 33 0 0 1 8.2-6.2 26.2 26.2 0 0 1 20.2-2.3Z"/>
    <path fill="#fff"
          d="M494.5 582a41 41 0 0 0-22 12.4 17.7 17.7 0 0 0-3.2 4.5 10.1 10.1 0 0 0-.8 5.3 21 21 0 0 1 .2 5 6.2 6.2 0 0 1-2.8 4.3 16.1 16.1 0 0 1-6 2c-2.4.5-4.8 1-6.8 2.4-.2.2-.5-.2-.2-.4 3.4-2.5 8-2 11.6-3.8a6.3 6.3 0 0 0 3.7-4.1 16.3 16.3 0 0 0-.2-5.2 10.8 10.8 0 0 1 .7-5.2 16.3 16.3 0 0 1 3-4.6 39.8 39.8 0 0 1 9.5-7.9 41.8 41.8 0 0 1 13.3-5c.3-.1.3.3 0 .4Z"/>
    <path fill="#fff"
          d="M474.2 592.2a6.2 6.2 0 0 1 .2-8c.2-.2.5.1.3.3a5.7 5.7 0 0 0 0 7.5c.1.2-.3.4-.5.2ZM468.3 603.3a11.9 11.9 0 0 0 8.3-2.2c.3-.2.5.2.3.3a12.3 12.3 0 0 1-8.7 2.4c-.3 0-.2-.5 0-.5ZM485.4 584.9a3.5 3.5 0 0 0 2.7 1.8c.3 0 .3.5 0 .5a3.9 3.9 0 0 1-3-2 .2.2 0 0 1 0-.4.2.2 0 0 1 .3 0Z"/>
    <path fill="#f0f0f0"
          d="M738.8 367.7c-5.1-41-30.5-81.5-69.6-94.8a190.4 190.4 0 0 1 0 130.7c-6 16.3-14.4 33.7-8.8 50.1a42.6 42.6 0 0 0 21.8 22.9c9.6 4.9 20.3 7.2 30.8 9.5l2 1.7c16.8-37.8 28.9-79.1 23.8-120.1Z"/>
    <path fill="#fff"
          d="M668.8 273.7a162.7 162.7 0 0 1 40.4 91.6 70 70 0 0 1-.8 21.9 40.2 40.2 0 0 1-10 18.6c-4.5 5-9.6 9.5-12.9 15.5a24.6 24.6 0 0 0-1.2 20 64 64 0 0 0 14.2 21.2c6.3 7 13 14.2 15.7 23.5.4 1.1 2 .6 1.8-.6-4.7-16.1-20.4-25.3-28-39.9-3.4-6.8-4.9-14.7-1.6-21.9 2.9-6.2 8.2-11 12.8-15.9 4.8-5.2 8.5-11 10.5-17.9 2-7 2.1-14.5 1.6-21.8a157.9 157.9 0 0 0-11.5-48 165.6 165.6 0 0 0-29.8-47.7c-.8-.9-2 .5-1.2 1.4Z"/>
    <path fill="#fff"
          d="M708.7 354.2a24.4 24.4 0 0 0 18.6-25.5c0-1.2-1.9-1.1-1.8 0a22.6 22.6 0 0 1-17.3 23.8c-1.2.3-.6 2 .5 1.7ZM701 403.6a47 47 0 0 1-21-27c-.3-1.2-2-.6-1.7.5a49 49 0 0 0 22 28.2c1 .6 1.8-1 .8-1.7ZM691 304.3a13.8 13.8 0 0 1-13.2-.7c-1-.6-1.8 1-.8 1.6a15.5 15.5 0 0 0 14.5.8 1 1 0 0 0 .6-1.1 1 1 0 0 0-1.2-.6Z"/>
    <path fill="#f0f0f0"
          d="m550 346.1 1.8 1.3a182 182 0 0 1 23.3 18.1l1.7 1.6a191.9 191.9 0 0 1 41.6 57 186.3 186.3 0 0 1 10.2 26.4c3.8 12.5 6.9 26.4 14.4 36.6a32 32 0 0 0 2.4 3h67.4l.5-.1h2.7l-.4-1.4-.2-.8v-.5l-.1-.2-.1-.5-2.1-8.2a274 274 0 0 0-23.1-60.6l-1-1.7a177.8 177.8 0 0 0-16-24.2 157.2 157.2 0 0 0-10.4-12 130.7 130.7 0 0 0-32.7-24.5 103.8 103.8 0 0 0-80-9.3Z"/>
    <path fill="#fff"
          d="M550.1 347a162.7 162.7 0 0 1 87.5 48.8 70 70 0 0 1 12.5 18 40.2 40.2 0 0 1 3.3 20.9c-.6 6.6-2 13.4-1 20 1 7.1 5.2 13 11.1 16.8a64 64 0 0 0 24 8.4c9.3 1.8 19 3.5 26.7 9.3 1 .7 2-.8 1-1.5-13.4-10.1-31.5-8-46.2-15.1-6.9-3.3-12.8-8.8-14.5-16.5-1.5-6.7 0-13.7.6-20.4.7-7 .2-13.9-2.4-20.6-2.7-6.8-7-12.9-11.8-18.4a157.9 157.9 0 0 0-38.1-31.3 165.6 165.6 0 0 0-52.5-20.2c-1.2-.2-1.3 1.6-.2 1.8Z"/>
    <path fill="#fff"
          d="M630.5 387.3a24.4 24.4 0 0 0-.5-31.6c-.8-1-2.2.2-1.4 1.1a22.6 22.6 0 0 1 .4 29.4c-.7 1 .8 2 1.5 1ZM654.1 431.3a47 47 0 0 1-33-9c-1-.7-2 .8-1.1 1.5a49 49 0 0 0 34.5 9.3c1.1-.1.8-1.9-.4-1.8ZM586.2 358a13.8 13.8 0 0 1-10.8 7.4c-1.2.2-.9 2 .3 1.8a15.5 15.5 0 0 0 12-8 1 1 0 0 0-.2-1.3 1 1 0 0 0-1.3.2Z"/>
    <path fill="#cacaca"
          d="M817.3 491.2H1a1 1 0 0 1 0-2h816a1 1 0 0 1 1 1c0 .5-.1 1-.7 1ZM286.3 579.2H106a1 1 0 0 1 0-2h180a1 1 0 0 1 1 1c0 .5-.1 1-.7 1ZM569.3 618.2H389a1 1 0 0 1 0-2h180a1 1 0 0 1 1 1c0 .5-.1 1-.7 1ZM739.3 578.2H559a1 1 0 0 1 0-2h180a1 1 0 0 1 1 1c0 .5-.1 1-.7 1Z"/>
    <path fill="#2f2e41"
          d="M333.3 540.2c-11.2 0-21.5-1.1-29.6-3.6-9.7-3-15.8-8-18.1-14.6a17 17 0 0 1 2.7-16.9c14.3-18.7 64-24 70.7-24.5l13.5-25.7c.9-6-3.2-10.7 3.9-10.8l83.7-1.2c7-.1 5 4.2 6.2 10.2l12.7 22.7-54.9 23.2 8.3 20.2-.5.3c-16.1 9.4-62.3 20.7-98.6 20.7Z"
          data-name="Path 161"/>
    <path fill="#2f2e41" d="M471.4 476.8s76.7-8.8 71.7 26.3-63.4 60-151.7 0l10-17.5s33-1.7 53-10.4Z"
          data-name="Path 162"/>
    <path fill="#feb8b8"
          d="M362.9 317.8s-14.6-2.7-18.6 19.9-10.3 75.8-10.3 75.8l-19.8 68.6a14 14 0 1 0 19.8 8.2l26.5-72.8 5-62.6V322a4.8 4.8 0 0 0-2.6-4.3ZM465.4 317.8S480 315 484 337.7s10.3 75.8 10.3 75.8l19.8 68.6a14 14 0 1 1-19.8 8.2l-26.5-72.8-5-62.6V322a4.8 4.8 0 0 1 2.6-4.3Z"
          data-name="Path 166"/>
    <path fill="#ff6e40"
          d="m464.3 299.2-27.5-10.3-53.5-.7-23 11 6.5 37s-13 22.2 1.3 44.3l3.2 78.7s51.5 29.8 95-6l-9.8-73.2s16.4-34 3.7-46.6Z"/>
    <path fill="#ff6e40"
          d="m453.1 310.7 11.2-11.5s24.5 12.9 24 56l-30.9-9.6ZM372.8 310.7l-12-12s-21 16.4-20.5 59.5l28.2-12.6Z"/>
    <path fill="#feb8b8" d="M450.6 510.4s-8.6-18-23-9.4-40.7 23-40.7 23-6.2 10.4 7.3 7.7 56.8-4.9 56.8-4.9Z"
          data-name="Path 163"/>
    <path fill="#2f2e41"
          d="m426.7 187.4.4-.3c7.6-7.7 9.2-18.6 3.4-24.3-5.4-5.4-15.4-4.3-23 2.3-6.5-6.2-15.1-8-20.8-3.7-6.5 5-6.4 16 .1 24.6l1.4 1.7a45.3 45.3 0 0 0-29.7 42.5v43.2a9.6 9.6 0 0 0 9.6 9.6h79.7a9.3 9.3 0 0 0 9.3-9.3v-43.5a45.3 45.3 0 0 0-30.4-42.8Z"/>
    <circle cx="600.1" cy="381.8" r="37.8" fill="#ffb6b6" transform="rotate(-45 334.5 541.9)"/>
    <path fill="#2f2e41"
          d="M369.3 217a51.4 51.4 0 0 0 29.4 9.2 31.5 31.5 0 0 1-12.5 5.1 103.7 103.7 0 0 0 42.4.2 27.4 27.4 0 0 0 8.9-3 11.2 11.2 0 0 0 5.5-7.3c.9-5.3-3.3-10.2-7.6-13.4a55.4 55.4 0 0 0-46.5-9.3c-5.2 1.3-10.4 3.6-13.8 7.8s-4.3 10.6-1.1 14.9Z"/>
    <path fill="#f2f2f2"
          d="M200.5 165.2zM167 141.6l1.3-1.6 31.7 23.5c-1.7-5.2-7.8-21.9-17.8-28.5-12-8-20.4-5.5-25 1.4s-3.6 15.6 8.4 23.6c10.1 6.7 28.2 5.8 33.4 5.3ZM617.9 43.5zM644.8 12.7l1.4 1.3-26.7 29.2c5.4-1.2 22.6-5.6 30.3-14.8 9.1-11 7.6-19.7 1.2-25s-15.2-5.2-24.3 5.9c-7.8 9.3-8.7 27.4-8.8 32.7ZM186.8 354.5zM213.8 323.7l1.4 1.3-26.7 29.2c5.4-1.2 22.6-5.6 30.3-14.8 9.1-11 7.6-19.7 1.2-25s-15.2-5.2-24.3 5.9c-7.8 9.3-8.7 27.4-8.8 32.7ZM420.1 82zM439.7 46l1.8 1-19.8 34.3c5-2.3 20.9-10.3 26.4-21 6.5-12.8 3-20.9-4.3-24.6s-16-1.8-22.5 11c-5.5 10.8-2.5 28.6-1.5 33.8ZM605.1 296zM624.7 260l1.8 1-19.8 34.3c5-2.3 20.9-10.3 26.4-21 6.5-12.8 3-20.9-4.3-24.6s-16-1.8-22.5 11c-5.5 10.8-2.5 28.6-1.5 33.8Z"/>
</svg>
