<svg xmlns="http://www.w3.org/2000/svg" viewBox="0 0 6310 3950">
    <g fill="#F7D6CD">
        <path d="M5257 2733c-10-160-9-228 9-467 20-259 13-373-30-461-14-28-26-66-26-83 0-30 2-32 36-32 45 0 68 13 108 58 17 20 67 75 110 122 95 102 190 220 213 263 20 39 22 144 4 202-31 99-27 95-94 95-59 0-60 0-42 20 27 30 17 128-22 211-55 118-133 179-229 179h-31l-6-107zM4940 2714c-41-19-77-37-79-39-2-3 6-25 19-51 44-95 53-172 44-374-16-349-10-450 26-450 15 0 20 7 20 29 0 16 4 51 10 78 41 208 79 497 96 747l7 96h-34c-19 0-68-16-109-36z"/>
    </g>
    <g fill="#FFDAA1">
        <path d="M70 3827c0-5 48-82 108-172 59-90 142-218 185-284l78-121h285c282 0 284 0 284 21 0 30-68 112-119 143-23 15-75 34-115 43-39 8-102 25-141 36l-70 21 55 6c54 5 55 5 58 40l3 35-83 19c-68 15-158 49-158 59 0 1 96 1 213 1 167-1 240-6 342-23 111-19 197-23 590-32 520-12 645-8 935 26 209 24 538 45 712 45 88 0 263-12 830-55 288-23 388-43 608-122 142-51 228-99 329-184 56-47 78-59 105-59 41 0 43 7 51 182 9 169 20 224 48 232 28 7 475 8 504 0 15-4 22-16 26-42 3-21 8-49 12-63 6-25 3-28-42-43-26-8-82-20-123-26-168-24-217-33-249-46l-34-14 6-112c7-116 12-135 28-105 9 15 31 17 219 17 155 0 212 3 220 12 6 7 45 67 87 133s120 189 175 273c54 85 98 158 98 162s-1363 7-3030 6c-1666 0-3030-5-3030-9z"/>
        <path d="M1315 3390c-62-13-94-28-147-66-28-21-48-44-48-55 0-19 21-19 979-19 538 0 993 3 1010 6 19 4 31 13 31 23 0 25-121 49-305 61-169 10-294 4-515-25-200-27-406-12-675 50-121 28-268 39-330 25z"/>
    </g>
    <g fill="#EEC8BC">
        <path d="m5343 2869-63-20 1-42c1-23 4-32 6-19 4 18 9 21 31 16 15-4 39-13 54-20 63-32 151-181 152-258 1-39-2-42-64-84-36-23-72-47-80-52-29-17-4-19 48-4 53 16 173 15 219-1 22-7 22-6-8 66-41 102-212 432-224 435-5 1-38-7-72-17zM4946 1908l-11-68c-6-42 30-123 58-128 13-3 17 4 17 31 0 19-7 48-15 63-8 16-15 53-15 82 0 39-4 52-15 52-8 0-16-13-19-32zM5420 1255c0-20 7-49 15-65 13-26 17-27 40-17 27 13 32 23 37 77l3 35-47 3-48 3v-36z"/>
    </g>
    <g fill="#FFCB99">
        <path d="M5168 3713c-23-6-36-77-43-228-6-129-13-185-24-185-4 0-13 6-20 13-10 10-12 4-10-33 1-25 1-67 0-95l-2-50-14 36c-24 67-48 103-103 161-47 50-60 58-91 58-35 0-39-4-88-82-95-153-163-316-163-392 0-32 4-36 56-63 76-38 150-105 180-164 13-27 27-49 29-49 3 0 33 14 66 31 33 16 72 34 86 40l25 9-6-57c-3-32-15-148-27-258-11-110-29-245-40-300-30-151-36-284-15-326 11-22 13-35 6-37-6-2 1-20 17-40 26-34 28-44 28-122 0-63-3-84-13-82-9 1-11-14-6-67 5-46 3-70-5-75-6-4-11-25-11-46 0-50-15-90-35-90-10 0-15-10-15-31 0-48 16-68 61-75 31-5 48-16 76-50 19-24 42-44 50-44 21 0 46-67 52-145l6-70 34-3c27-3 40 3 68 30 30 29 33 37 28 68-8 47 26 125 63 144 15 8 46 19 70 25 46 13 48 17 30 56-9 21-9 31 0 46 10 15 9 25-3 49-20 40-19 43 13 35 26-5 30-2 46 33 24 54 13 71-76 117-127 65-156 109-143 213 9 72 20 101 53 135l27 28-27-10c-15-6-46-20-69-31-22-12-43-20-44-18-2 2 7 26 20 53 47 96 55 232 29 550-20 245-13 481 15 490 14 4 16 37 13 359l-3 354 155 7c86 4 194 4 241 0 59-5 85-3 85 4 0 6-4 11-9 11-9 0-20 54-24 119-2 23-8 36-22 42-21 8-547 10-577 2zM376 3694c-5-13 36-55 74-75 14-7 65-22 114-34 95-23 102-39 14-31l-53 5 43-11c23-6 42-15 42-19 0-5 15-9 33-9 37 0 97-34 127-72 11-15 41-37 67-50 25-13 58-35 72-50 42-45 87-39 161 23 78 65 114 79 199 79h69l7 91c4 50 3 95-1 99-5 5-65 14-134 20-69 5-165 17-215 26-115 20-612 27-619 8z"/>
    </g>
    <g fill="#FFB887">
        <path d="M600 3701c-133-10-81-19 105-19 126 0 204-5 300-21 72-12 168-26 215-32 58-7 89-16 98-27 11-15 14-15 22-2 25 40 14 48-77 54-49 4-152 16-230 27-159 23-308 30-433 20zM5368 3563l-78-4v-368c0-202 2-370 5-372 7-8 135 35 135 45 0 6-18 39-39 75-43 73-47 98-56 354l-5 128 33 13c31 13 80 22 252 47 83 12 185 44 185 59 0 27-148 35-432 23zM490 3542c0-43 66-73 255-116 39-8 81-19 94-22 21-6 20-2-18 47-64 81-96 96-223 104-104 7-108 6-108-13zM1310 3495c0-12-14-15-70-15-87 0-122-14-201-80-53-44-67-51-96-48-38 5-39 7 7-53 19-25 52-54 72-64 37-18 39-18 80 1 24 10 66 35 94 56 64 48 123 69 201 71l63 2v111l-67 17c-82 21-83 21-83 2zM4856 3426c-16-22-26-47-26-68 1-31 1-32 15-13 15 18 17 17 66-30 89-88 132-185 145-331 9-102 17-78 39 130l19 170-59 53c-52 48-155 123-168 123-3 0-16-15-31-34zM5178 1491c-43-10-81-21-84-24-4-4 29-4 72-1s105 2 136-3l57-10-22 28c-26 33-49 35-159 10zM4950 1308c-16-25-20-47-18-93 3-54 5-60 26-63s22-1 13 17c-9 17-9 20 3 15 10-4 18 7 26 33 7 21 24 51 39 66l26 29-27-7c-29-8-36 3-16 23 9 9 5 12-20 12-26 0-36-7-52-32z"/>
    </g>
    <g fill="#A5B2C7">
        <path d="M2830 3669c-124-8-431-33-725-61-136-12-352-6-530 16-66 8-151 16-190 18l-69 3-1-85v-85l57-14c44-12 58-20 60-35 2-17 23-27 113-53 312-93 613-113 975-67 118 15 155 15 295 5 88-7 183-18 210-26 47-13 136-30 280-54 33-6 132-20 220-31 232-31 306-60 443-176 71-60 127-95 192-120 37-14 83-18 245-18 110-1 207-5 215-9 12-6 18 4 27 52 19 104 117 304 203 418l37 50-90 42c-177 83-403 146-612 170-382 44-1106 76-1355 60zM4662 1253c-9-13-14-15-18-5-11 24-33 12-45-25-18-51-18-199 0-241 10-23 20-32 36-32 13 0 25 6 28 13 3 9 8 8 22-3 17-14 18-13 9 40-5 30-8 103-6 163 1 59-2 107-6 107s-13-8-20-17z"/>
    </g>
    <g fill="#94A5BB">
        <path d="M2860 3708c-91-5-259-21-375-36-201-25-230-26-685-27-308 0-476-4-478-10-12-38 570-78 813-56 771 68 841 71 1135 60 345-13 839-49 965-70 196-32 382-88 532-160 45-21 86-39 91-39s22 16 36 35l27 34-38 25c-43 29-216 95-339 131-161 47-221 54-849 100-351 26-540 29-835 13zM1430 3405c0-28 4-35 23-39 12-2 69-14 127-26 241-49 314-59 475-65 144-6 195-4 333 14 179 24 300 28 492 18l125-7-75 20c-111 30-278 36-439 16-354-44-603-25-920 68-66 20-125 36-131 36-5 0-10-16-10-35zM3847 3158c-19-34-19-35 35-67l37-22-26 58c-14 32-27 59-27 60-1 1-9-12-19-29z"/>
    </g>
    <g fill="#70241E">
        <path d="M4825 1487c-54-26-110-82-131-132-40-96-57-268-35-342 7-26 7-33-3-33-37 0-53 151-23 221 14 34 14 39-4 68-21 35-85 71-127 71-81 0-145-126-145-285-1-90 21-152 67-194 34-32 119-41 165-17 36 19 71 70 71 104 0 36 18 26 44-26 29-56 109-134 162-158 26-11 66-17 119-16 255 0 272 3 307 46 18 22 25 101 10 110-5 3-26-12-47-34-39-40-57-44-48-11 10 40-45 221-68 221-5 0-6-8-3-17 4-10-16 5-42 34-38 40-55 52-78 51-35-1-56 24-56 65 0 34 14 63 48 100 21 22 26 37 26 80 1 63-9 103-26 105-104 14-135 12-183-11zM5292 1068c-20-20-14-35 14-35 20 0 24 4 22 20-4 25-19 32-36 15z"/>
        <path d="M5200 1051c0-28 71-121 92-121 16 0 8 25-12 38-11 7-33 31-50 54-16 22-30 36-30 29z"/>
    </g>
</svg>