<svg xmlns="http://www.w3.org/2000/svg" viewBox="0 0 5830 4280">
    <path fill="#F9E9D9"
          d="M2325 4039c-555-15-1089-38-1478-65-95-6-107-9-107-26 0-16 10-18 120-18 109 0 121-2 132-20 17-26 48-26 48 0 0 19 0 19 32 0 34-20 274-51 654-85 296-26 1436-18 2099 15 615 31 829 50 839 77 5 12 49 13 311 7 280-6 305-6 305 9 0 10-1 17-2 17-2 0-35 7-75 15-71 15-389 36-808 55-660 29-1429 36-2070 19z"
    />
    <path fill="#F09C18"
          d="M5235 3714c-11-2-46-6-78-9-48-5-56-9-47-21 14-16 5-32-127-222-313-448-390-532-577-627-258-132-277-145-372-239-97-98-270-324-424-554-52-78-98-142-102-142s-45 24-90 54c-46 30-104 65-131 79l-47 25-26-44c-16-28-54-66-98-98-75-56-255-218-269-243-6-10-2-22 12-37 17-18 21-35 21-85 0-142 62-351 136-458 168-245 505-336 737-200 129 76 216 234 427 782 82 211 121 295 277 591l96 181 56 18c129 40 280 132 355 216 91 101 223 427 391 967l23 72-62-1c-33-1-70-3-81-5z"
    />
    <path fill="#5266CC"
          d="M2420 2829c-41-5-81-11-89-14-7-3-20 0-27 6-11 9-14 6-14-20 0-33-5-31 101-51 64-12 129-51 151-89 19-31 48-157 48-204s-45-131-88-165c-116-91-206-83-305 28-45 50-117 178-117 208 0 8-12 41-26 73-26 57-28 59-65 59s-38-1-45-47c-5-31-1-70 10-119 15-64 24-80 82-145 127-144 205-216 290-270 48-30 124-82 171-117l84-63 17 32c94 171 201 281 345 350 26 13 47 26 47 29s-35 42-79 85l-78 80-6 85c-3 47-11 99-17 115-16 42-67 93-121 120-40 21-153 47-184 44-5-1-44-5-85-10z"
    />
    <path fill="#CA553B"
          d="M1990 3242c-15-12-24-33-27-66-5-45-4-50 33-87 34-34 44-39 85-39 69 0 91 22 97 96 3 49 0 63-18 87-19 24-28 27-85 27-45 0-69-5-85-18z"
    />
    <path fill="#B44B31"
          d="M1556 3335c-34-32-77-125-84-180l-4-42 73-53c41-29 116-94 167-144 69-68 99-91 119-91 24-1 29-7 44-58 9-31 27-70 40-85 13-16 33-45 43-63 19-31 20-32 24-11 2 12 7 22 11 22 11 0 46-77 65-141 18-65 74-129 133-155 21-9 74-18 118-21 70-4 86-2 125 19 66 34 82 72 77 178-4 91-16 124-84 228-28 41-41 52-61 52-21 0-45 19-104 82-43 45-78 88-78 94s7 17 15 24c14 12 10 19-32 56-36 32-54 41-71 37-33-8-104 61-96 92 4 18-7 33-58 77-129 111-121 108-245 108-104 0-112-1-137-25z"
    />
    <g fill="#A54225">
        <path d="M625 3957c-112-9-165-21-149-36 5-5 65-13 134-19 112-9 137-15 241-56 114-46 116-48 188-127 40-45 109-136 153-203 44-66 96-140 115-164 29-35 33-47 28-73-7-29-2-37 56-95 54-54 69-64 98-64 26 0 32 3 24 11-21 21 40 156 84 184 26 18 169 19 191 2 6-5 12-6 12-1 0 4 6 1 13-8 6-8 47-45 90-82 73-63 97-73 97-41 0 21 41 45 76 45 44 0 78-42 70-85-6-28-30-57-59-69-7-3 6-22 36-50 27-25 52-46 55-46 23 0 122 117 122 144 0 10-20 45-45 77-25 33-45 62-45 66 0 3-6 14-14 22-7 9-21 37-31 63-21 58-39 65-77 33-16-14-33-25-37-25-5 0-37 23-72 51-35 29-88 63-116 76-48 22-69 43-43 43 6 0 10 5 10 11s-12 9-27 7c-25-3-28-8-31-43-2-22 2-57 8-78 6-22 9-41 7-43-3-3-46 24-97 60-86 61-94 65-133 60-42-6-42-6-276 183-189 151-237 194-243 219-4 17-14 36-20 42-17 13-257 19-393 9zM4628 3950c-25-15-22-37 5-46 42-13 362-136 392-151 17-8 46-31 66-49l35-34 121 11 121 12 31 61c17 34 31 71 31 84 0 34-26 89-47 100-27 14-734 25-755 12zM2337 2786c3-6 19-27 34-46 93-120 130-248 92-320-27-51-93-83-159-76-78 9-116 30-188 101-36 37-66 62-66 56 0-5 5-13 10-16 6-4 8-11 5-16-10-14 55-127 103-181 62-68 111-92 192-92 43 0 77 6 100 19 144 74 187 186 144 378-22 97-41 127-107 163-39 21-169 46-160 30zM1887 2738c-2-7 2-30 9-50 7-21 27-89 45-150 33-118 43-138 65-138 10 0 8 10-6 43-26 58-34 116-22 158 11 40-2 75-46 122-28 30-38 33-45 15zM2899 2304c-134-71-236-173-312-310l-38-69 68-59c37-33 109-100 160-149 71-69 93-86 100-74 14 24 194 187 268 242 67 50 150 155 123 155-6 0-77 67-157 150l-146 150-66-36z"/>
    </g>
    <g fill="#5E0F00">
        <path d="M1823 3590c-17-10-38-31-46-45-13-25-18-27-104-30-137-4-141-11-42-80 46-32 112-80 147-107l62-50v28c0 15-10 68-22 117-21 87-21 90-3 103 27 20 64 17 133-11 65-26 107-31 132-15 12 8 10 10-9 10-15 0-44 19-77 50-47 44-58 50-96 50-25 0-56-8-75-20zM1952 3308c-18-18-15-36 9-49 31-16 56 9 40 40-13 24-31 27-49 9zM1336 3279c-2-8-7-25-10-39-4-22-11-25-50-26-55-1-88-22-123-77-15-23-40-57-55-75-34-40-35-71-5-109 13-15 33-44 45-64 42-70 130-89 197-43 26 17 48 24 67 22 16-3 33 1 39 8 8 9 26 5 82-21 74-34 155-55 209-55 42 0 108 21 108 34 0 19-191 200-275 261-44 31-112 89-152 128-49 48-74 66-77 56z"/>
    </g>
</svg>