<svg xmlns="http://www.w3.org/2000/svg" viewBox="0 0 512 512">
    <path fill="#61311c" d="M404 488h-68a32 32 0 0 1 32-32h24l8-8h4a20 20 0 0 1 20 20 20 20 0 0 1-20 20z"/>
    <path fill="#feb784"
          d="M406.5 451.9c-2.9 13.9-18 25.6-32 22.8 0 0-26.5-6.5-46.5-10.7h-56l-3.9-6.8L240 408v-64l-14.6-14.7a47.8 47.8 0 0 1-7.3-9.3l-.5-.9a47.7 47.7 0 0 1 .6-48L232 248l5.1-128 2.9-72 37.3-22.4a11.4 11.4 0 0 1 5.8-1.6h1.6a11.3 11.3 0 0 1 8 19.3L272 64l3.9 56L288 296v72h2.5a27.6 27.6 0 0 1 23.6 41.8l-5.3 8.9-7.5 12.5 40 3.5v-20h20l6.6-6.6 12 12.4 6.5 1a25.7 25.7 0 0 1 20 30.4z"/>
    <path fill="#c378cb"
          d="m314.1 409.8-5.3 8.9c-11 4.4-25.7 14.7-40.7 38.5L240 408v-40h50.5a27.6 27.6 0 0 1 23.6 41.8z"/>
    <path fill="#6e3c26"
          d="m357 459 4.3 6.6a9 9 0 0 0 16.3-7.4l-.6-2.1 29.6-14c3 11.9 2.6 31.7-16 42.2C364.5 499 328 464 328 464z"/>
    <path fill="#bc4598" d="M288 296v24h-70l-.4-.9a47.7 47.7 0 0 1 .6-48L232 248l5.1-128H276z"/>
    <path fill="#fec093"
          d="m216 456 8-40 26-11.7a8.6 8.6 0 0 0 5-7.8 8.6 8.6 0 0 0-12.2-7.8L240 390v-38l-16 8-43.3 86.5a28.7 28.7 0 0 0-2.1 19.8 28.7 28.7 0 0 0 27.8 21.7H276a20 20 0 0 0 20-20 20 20 0 0 0-20-20h-4z"/>
</svg>