<svg xmlns="http://www.w3.org/2000/svg" viewBox="0 0 3490 7160">
    <path fill="#4DC7D3"
          d="M1262 6218c-2-101-90-457-156-632-62-165-67-284-25-592 19-139 20-168 10-244-13-93-39-203-76-320-32-103-73-307-96-480-69-513-4-901 193-1156 41-53 45-55 79-50 185 29 276 29 474 0 39-6 42-4 69 34 55 80 180 169 369 261 217 108 595 370 725 503 77 79 138 159 159 207 17 43 13 124-11 169-21 41-52 49-224 63-232 17-381-2-580-77-107-40-299-91-377-100-51-6-53-7-59-43-3-20-6-64-6-97v-62l75-7c123-11 108-22-125-93-140-42-173-49-215-43-50 6-50 6-48 41 1 19 9 40 19 47 20 15 19 15-20 28-46 16-54 37-32 92 35 90 42 175 23 270-17 82-17 85 3 130 12 28 20 67 20 101 0 37 5 61 16 74 12 12 14 21 7 30-6 7-13 99-17 203-3 105-13 249-21 320-20 175-19 230 7 397 19 125 21 175 18 403-2 143-3 351-3 463l1 202h-175l-1-42z"
    />
    <g fill="#FFC285">
        <path d="M1204 6977c-46-13-74-33-74-52 0-7 11-37 24-66 22-49 33-93 65-269 6-30 20-89 32-130 16-57 19-93 16-152l-5-78h89c86 0 89 1 89 23 1 103 23 263 45 330 28 86 31 121 13 178-9 33-8 45 7 79 17 38 17 43 2 75-27 56-57 69-166 72-53 1-114-3-137-10zM1414 4269c-14-16-19-34-17-75 1-36-5-69-17-97-24-51-25-95-5-182 18-76 13-135-17-202-13-29-18-60-16-95 3-45 7-54 30-68 23-12 32-13 60-1 69 27 136 41 233 47l100 7 2 98 2 99h-73c-62 0-75 3-94 23-37 39-93 171-99 233-3 33-14 76-24 96-11 21-19 55-19 76 0 52-20 70-46 41zM440 2770c-49-49-8-175 165-515 146-286 229-432 267-471 29-31 136-86 192-98l29-7-7 73c-11 112-34 260-52 338-17 70-34 87-52 54-8-14-16-8-45 37-58 88-109 159-169 239-31 41-53 79-49 83 11 11 302-8 384-24 50-10 57-15 55-33-2-17 4-22 36-27 48-8 81-43 96-102 6-23 22-77 36-121 14-43 28-111 31-151l6-72-36-6c-116-19-204-112-221-237l-7-46 56-11c107-23 155-73 155-162 0-35-6-46-55-92-35-34-67-77-87-119-18-36-49-84-71-108-50-56-88-142-94-214l-6-58h40c31 0 46-7 68-30 16-17 35-30 42-30s13-6 13-13 33-45 73-85c99-98 109-98 265 6 225 151 239 157 300 153l54-3-4 63c-5 76-40 159-91 215-19 22-49 68-67 103-17 35-54 88-81 116-43 46-49 57-49 96 0 97 68 156 194 168 11 1-2 87-20 131-30 71-117 140-195 155l-35 6 8 77c5 42 20 111 33 152 14 41 30 94 36 117 13 55 46 93 89 102 27 6 35 12 33 27-2 18 7 22 75 33 94 14 260 30 325 31 31 0 47-4 47-12 0-7-48-76-106-153-59-77-118-158-132-180-20-31-27-36-30-22-6 30-34 14-49-28-20-58-50-235-58-343l-8-93 29 7c61 14 176 67 202 93 34 35 135 214 273 486 147 291 172 354 173 438 1 80-5 87-85 87-92 0-410-96-593-179-78-35-86-37-86-16 0 22-24 19-80-10-28-14-76-32-108-40-51-13-64-13-115 0-31 8-84 28-117 45-67 34-80 36-80 15 0-8-5-15-11-15s-73 25-149 55c-177 70-406 136-491 143-59 4-69 2-89-18z"/>
    </g>
    <g fill="#D73B68">
        <path d="M1275 2790c-92-12-135-20-135-26 0-3 7-18 15-34s18-56 21-89l7-59 66-31c36-16 89-35 118-41 39-9 54-17 59-32 3-12 5-80 3-152s-1-187 1-256l3-125 8 130c3 72 4 180 1 241-2 61-2 127 2 147 6 34 10 36 59 47 30 6 81 24 115 40 54 26 62 33 62 57 0 28 20 111 34 144 6 14-3 19-56 28-86 16-298 22-383 11z"/>
        <path d="M1160 2449c0-6-26-38-59-72-104-110-131-192-100-309 11-40 26-124 34-188 27-200 25-195 63-198 34-3 37-1 46 59 4 20 20 56 36 81 43 65 100 100 203 123 22 4 27 10 22 23-3 9-11 57-16 106-6 49-18 110-28 135s-24 71-31 101c-16 70-35 106-63 124-30 19-107 30-107 15zM1640 2450c-44-11-76-48-89-103-6-23-22-76-35-117-14-41-30-113-35-160-6-47-13-94-17-106-5-19 0-22 36-28 55-9 97-30 143-75 47-44 64-74 78-139 10-49 10-49 42-43 30 6 32 10 40 66 20 158 41 276 59 333 16 54 18 71 8 115-14 66-46 120-105 177-26 25-51 55-56 68-9 24-15 25-69 12zM1394 1363c-32-6-81-60-67-74 20-20 134-23 177-5 39 16 39 16 20 37-37 41-74 53-130 42zm82-48c17-13 13-14-46-14s-63 1-46 14c11 8 32 15 46 15s35-7 46-15zM1182 1050c-34-8-60-26-51-34 2-3 22-1 44 4s57 10 77 10 40 5 43 10c4 6-6 10-24 10-16 0-35 2-43 4-7 2-28 0-46-4zM1565 1050c-49-8-33-15 63-27 70-8 90-3 55 15-28 15-75 20-118 12zM1270 884c-31-11-32-13-10-13 14 0 32 3 40 9 24 15 7 18-30 4z"/>
    </g>
    <g fill="#021522">
        <path d="M1742 1183c7-30 17-42 39-50l29-11-17 29c-10 17-28 39-40 51l-21 20 10-39zM1081 1173c-30-36-44-70-19-45 7 7 20 12 29 12 11 0 19 11 23 32 3 17 4 33 2 35s-18-13-35-34zM1583 1053c-45-8-22-21 45-25 74-5 82-4 55 10-24 12-73 19-100 15zM1148 1039c-28-16-22-30 8-19 14 6 45 10 70 10 24 0 44 5 44 10 0 13-100 12-122-1zM1003 900c9-157 71-277 190-363 37-27 67-56 67-64 0-7-9-31-20-53-39-76-20-125 62-160 111-48 252-17 291 63 15 30 17 43 8 69-23 76-20 90 33 125 71 47 121 98 154 162 40 76 62 153 62 221 0 56-1 57-25 52-16-3-33 2-45 13-19 17-23 16-101-31-45-27-84-48-88-47-3 1-15 4-26 8-19 6-19 6-3-8 16-13 8-21-97-91-63-42-118-76-123-76-4 0-41 34-82 75-73 74-74 75-45 76 26 1 25 3-13 12-29 7-54 22-78 50-26 28-39 36-47 28-17-17-55-13-67 7-9 13-10-3-7-68z"/>
    </g>
    <g fill="#4C4C4E">
        <path d="M1220 1040c-22-7-20-8 15-9 22 0 47 4 55 9 11 7 8 9-15 9-16-1-41-5-55-9zM1545 1040c24-10 84-11 107-2 9 4-15 8-55 8-46 1-65-1-52-6zM1296 893c-21-11-44-14-78-10-30 4-46 2-43-3 15-24 165 0 165 25 0 8-14 5-44-12zM1544 895c11-8 27-15 35-15 10 1 7 6-9 15-33 19-50 18-26 0zM1258 466c-5-23-1-26 44-35 52-12 204-13 253-2 21 4 30 12 30 26 0 19-7 20-140 20-77 1-150 5-161 9-18 6-22 3-26-18z"/>
    </g>
</svg>