<svg xmlns="http://www.w3.org/2000/svg" viewBox="0 0 4580 5440">
    <g fill="#EF9F8E">
        <path d="M295 5160c-17-18-15-20 46-60 84-55 171-95 242-113 66-17 129-55 152-91 12-18 18-69 26-206 15-297 44-497 95-651 8-26 32-152 53-280 33-198 37-236 25-245-8-6-14-14-14-18 0-10 316-3 326 7 4 4 0 13-9 20-31 23-163 471-182 617-7 58-40 213-73 345-66 262-92 394-92 468 0 48 7 54 38 37 9-5 56-27 104-49 73-33 90-45 102-73 9-18 54-145 100-283 112-329 203-555 223-555 7 0 19 12 27 28 34 65 105 104 188 103 54 0 76 10 44 22-7 3-16 21-20 40-10 55-84 196-216 417-165 276-162 266-154 387 6 91 5 100-16 126l-21 27H914c-326 0-374-2-374-15 0-19-31-19-94 0-70 21-129 20-151-5zM3560 5161c0-39 43-61 236-120 56-17 107-38 114-46 10-12-4-48-83-203-182-359-288-525-440-686-20-21-37-40-37-42 0-1 19-5 43-9 66-11 190-53 213-73 12-10 26-28 33-40 12-22 41-31 41-11 0 5 30 45 68 87 168 192 183 225 278 616 33 140 57 192 133 291 73 95 115 176 106 203-3 11-24 27-46 36-33 13-89 16-349 16-299 0-310-1-310-19zM1003 2921c4-17 0-36-10-51-15-21-19-22-137-15-66 3-133 11-148 17-36 14-90-5-138-48-21-19-54-41-74-49-65-28-76-46-76-130 0-51-6-92-20-127-27-71-26-86 8-94 15-3 63-14 106-25 53-13 115-19 185-19 141 1 172 14 231 103 35 52 53 69 80 77 46 13 50 13 50-5 0-20 23-19 43 3 62 68 79 240 32 331-27 54-38 61-97 61-39 0-40-1-35-29zM1134 2011c6-9 17-126 36-386 8-103 8-176-1-275-10-121-9-154 9-320 38-334 38-331 8-359-14-14-26-29-26-35s-20-53-45-105c-24-52-41-99-38-105 4-5 24 10 45 35 51 60 70 49 81-47 12-106 24-144 53-154 13-5 24-15 24-22 1-8 6-6 14 5 8 10 22 17 33 15 14-2 19 4 21 27 5 58 12 75 27 69 17-7 17-3 15 116 0 41-10 112-21 156-19 79-19 87-4 255 8 100 15 283 15 429 0 276 29 660 53 688 10 13 6 14-38 8-126-18-162-18-193-2-33 17-77 22-68 7z"/>
    </g>
    <g fill="#685962">
        <path d="M1595 4191c-47-12-90-38-119-71-23-28-32-51-49-126-6-28 9-122 29-182 19-54 231-528 278-617 17-33 32-63 34-67 2-5-3-8-12-8s-16-6-16-13c0-8 50-30 128-56 144-47 340-139 428-198 32-22 131-108 218-191 123-116 163-149 173-140 7 5 39 23 70 38 84 40 164 103 222 174 28 35 116 166 197 292 80 126 182 281 227 344 234 330 267 391 275 492 2 36 2 78-2 92-14 55-91 97-233 127-96 20-160-15-346-190-129-122-408-433-469-525-74-110-104-147-132-163-30-17-32-17-78 25-88 79-279 356-444 645-111 195-166 265-234 299-55 28-89 32-145 19zM547 2554c-10-11 3-24 24-24 10 0 19 7 19 15 0 15-31 21-43 9zM547 2413c-14-13-6-23 19-23 22 0 25 2 14 15-14 16-23 19-33 8z"/>
    </g>
    <path fill="#658D8C"
          d="M1060 3521c-69-3-131-10-139-15-11-7-13-31-8-120 8-153 25-242 93-475 3-10 7-11 19-1 42 35 105-58 105-157 0-58-33-152-60-168-25-15 15-445 51-540 27-71 52-85 156-84 99 0 141 15 170 58 20 29 23 47 23 122v87l33 11c80 25 560 152 627 166 41 8 174 30 294 49 162 26 226 39 245 54 14 10 26 24 26 30 0 17-302 299-369 345-207 141-597 268-819 267h-57l-68 138c-38 75-73 152-80 169-12 36-65 74-97 71-11-1-76-4-145-7z"
    />
    <g fill="#B0524A">
        <path d="M1638 4193c12-2 30-2 40 0 9 3-1 5-23 4-22 0-30-2-17-4zM369 2901c-42-35-85-125-101-209-15-81 7-154 64-215 24-25 54-49 67-52 14-4 21-3 18 2-4 6 3 33 13 62 14 34 20 76 20 126 0 85 11 102 77 130 21 9 52 29 68 45 17 16 53 38 80 50l50 22-35 18c-55 28-151 50-222 50-55 0-68-4-99-29z"/>
    </g>
</svg>