<svg xmlns="http://www.w3.org/2000/svg" viewBox="0 0 5850 4270">
    <g fill="#FAC8A5">
        <path d="M2653 3859c-42-12-47-34-39-157l7-97-45-119c-25-66-45-120-43-121 1-1 29-7 62-14 33-6 83-22 111-36s56-25 61-25c14 0 21 50 29 190 3 63 10 129 15 145 14 45 119 102 252 137 162 42 178 67 55 87-105 17-422 24-465 10zM3549 1570c-67-20-150-94-186-165-31-60-63-168-63-212 0-30 2-32 53-42 28-6 126-22 217-36 91-15 183-30 205-35s53-12 68-15c20-4 27-10 23-20-10-28 36-16 74 19 21 18 58 46 84 61l46 27 72-66c62-57 77-66 110-66 35 0 118 26 118 37 0 6-31 46-83 110-32 38-36 48-25 59 15 15 377 34 645 34 146 0 165-2 181-19 9-10 42-44 72-76 82-85 161-119 91-39-24 27-30 39-21 48 6 6 59 13 118 16 102 5 107 6 110 28 3 18 10 22 38 22 19 0 34 5 34 11 0 26-23 49-56 55-42 8-54 29-28 49 11 8 17 15 14 16s-97 5-210 9c-151 6-229 13-295 29-101 23-273 47-415 56-96 6-159 2-484-35-99-11-187-20-196-20-11 0-32 26-56 67-30 51-48 70-79 84-42 19-129 24-176 9zM160 1286c0-19 199-274 249-319 56-50 86-49 164 7 70 50 128 69 184 61 21-3 102-7 181-8 161-2 157-4 124 75-10 24-27 74-37 111s-21 70-24 72c-8 4-172-52-260-89-55-24-77-27-165-28-124 0-209 24-312 88-74 45-104 54-104 30z"/>
    </g>
    <path fill="#DB001D"
          d="M2651 1742c-71-100-113-187-146-298-28-95-46-284-28-284 6 0 66 11 134 26 172 35 407 37 554 5 55-12 114-25 130-27l30-6 19 79c32 136 90 224 186 281 75 44 150 36 239-28 16-11 31-20 34-20s-19 39-49 88c-64 102-124 168-172 188-49 20-131 17-220-8-107-31-387-33-472-4-95 33-150 59-150 73 0 34-39 6-89-65z"
    />
    <path fill="#5B6B00"
          d="M2532 3374c-47-90-101-377-112-604-9-180-11-192-100-590-22-102-52-252-65-335-17-100-30-154-40-161-9-6-34-15-58-18-77-12-249-72-537-184-85-34-238-84-340-112-224-62-310-89-310-98 1-14 48-169 63-204 18-43 46-54 109-44 38 6 181 72 255 118 18 10 61 31 95 46 63 26 63 26 382 30l319 3 64-32c67-34 135-46 205-35l43 7 1 78c3 147 68 323 177 475 54 75 57 82 52 125-38 332-48 465-47 666 0 237 0 238 57 577 31 185 36 230 26 242-18 21-111 55-175 62-46 6-55 4-64-12z"
    />
    <path fill="#533628"
          d="M3990 1152c-42-27-87-63-100-80-14-18-40-51-57-73-18-23-33-48-33-57 0-49 127-165 238-218 146-69 317 16 351 175 12 58 0 145-25 172-15 16-18 16-57-2-23-10-46-19-52-19-5 0-48 34-94 75s-86 75-90 75c-3 0-40-22-81-48z"
    />
</svg>