<svg xmlns="http://www.w3.org/2000/svg" viewBox="470.4 664.3 2457.3 5892.9">
    <path fill="#DFEDED"
          d="M1175 6563c-22-1-103-7-180-13-299-23-546-78-521-118 17-29 170-66 356-86 117-13 428-36 489-36 44 0 70-5 81-15 16-14 18-13 24 24 10 63 31 72 150 65 78-5 117-2 171 11 40 10 129 20 207 22l138 6 9-24c8-22 5-25-30-37-27-10-39-20-39-33 0-17 8-19 63-19 58 0 351 22 477 36 114 12 244 35 293 52 56 19 82 46 57 62-63 40-318 79-660 100-146 9-982 12-1085 3zm437-436c-13-14-22-36-22-55 0-30 3-32 33-32 43 0 77 35 77 78 0 30-3 32-33 32-22 0-41-8-55-23zm-92-1793c-144-22-300-68-300-88 0-7 7-28 16-45 11-23 21-31 33-27 9 3 48 17 87 30 92 33 227 56 325 56 81 0 104 11 73 35-18 13-18 14-1 15 9 0 17 7 17 15 0 13-19 15-112 14-62-1-124-3-138-5zm-40-1059c0-34 1-35 40-35s40 1 40 35-1 35-40 35-40-1-40-35zm100-50c0-33 2-35 35-35s35 2 35 35-2 35-35 35-35-2-35-35zm-250-140c0-33 2-35 35-35s35 2 35 35-2 35-35 35-35-2-35-35zm280-110c0-41 2-45 25-45 16 0 25-6 25-15 0-10 11-15 35-15 33 0 35 2 35 35 0 31-3 35-25 35-20 0-25 5-25 25 0 22-4 25-35 25-35 0-35 0-35-45zm-340-650c0-33 2-35 35-35s35 2 35 35-2 35-35 35-35-2-35-35zm-10-170c0-33 2-35 35-35s35 2 35 35-2 35-35 35-35-2-35-35zm192-215c-18-107-18-110 22-110h33l12 69c17 107 16 111-22 111h-33l-12-70z"
    />
    <path fill="#FEC79E"
          d="M1810 6443c-14-2-56-11-93-19-50-10-96-13-170-8-119 8-143-3-154-68-5-34 0-45 51-115 31-43 77-100 102-127 29-33 44-56 41-68-10-37 38-18 101 41 46 44 62 65 62 85 0 15 5 36 10 46 14 27 83 65 179 100 65 24 81 27 81 15 0-21 14-19 95 11 106 40 117 56 49 69-20 3-33 9-30 12s1 12-5 20c-9 10-45 13-153 12-77-1-152-4-166-6zm-397-3163c-47-28-61-56-74-144-11-71-10-83 6-112 15-29 17-48 11-126-3-51-9-140-13-197-5-88-9-104-24-108-13-4-20-18-23-47-17-139-27-279-37-484-10-211-9-235 5-245 15-11 15-34 0-287-8-151-20-291-25-312-5-20-27-57-48-83-41-49-46-64-57-180-7-74 6-82 23-16 5 19 14 36 21 39 9 3 12-32 12-138 0-88 4-139 10-135 5 3 12 21 16 40 9 49 24 33 24-26 0-63 15-56 23 11 9 79 26 97 27 30 1-47 3-52 12-32 13 25 28 29 28 7 0-8 7-15 15-15 9 0 15 9 15 23 0 12 5 29 10 37 8 12 10 11 10-7 0-27 18-30 36-5 13 16 13 16 14 0 0-22 30-24 30-2 0 9 9 18 20 21s20 10 20 17c0 6 3 22 7 35 6 24 5 24-46 18l-53-6 8 82c8 77 9 115 5 342-1 63 8 140 29 255 16 90 30 175 30 187 0 16 6 23 20 23 16 0 20 7 20 34 0 19-5 36-10 38-7 2-3 39 10 103 11 55 20 114 20 130 0 17 3 40 6 51 5 19 9 20 35 11 20-8 29-18 29-34s6-23 20-23c11 0 20-5 20-11 0-7 15-10 40-7 28 2 40 0 40-9 0-18 74-17 89 1 9 10 8 16-4 26-20 17-22 182-2 198 7 6 39 14 69 18l56 7-20 38c-20 39-18 59 8 59 18 0 18 20-1 47-10 14-12 24-5 28 17 10 12 48-5 41-12-4-14 0-9 22 4 15 13 39 20 53 18 36 9 42-96 71-75 21-85 27-88 48-2 14-13 35-24 47-17 19-19 30-14 76 4 29 14 66 21 81 8 16 15 41 15 57 0 26-4 29-30 29h-30v105c0 115-12 157-54 200-23 22-33 25-103 25-60 0-86-5-110-20z"
    />
    <g fill="#F4B58B">
        <path d="M1947 6355c-66-24-139-56-163-70-44-26-80-76-70-100 2-7-3-23-11-35l-16-23 42 6c48 6 61 14 42 26-9 6-3 18 26 45 43 41 92 66 178 91 117 35 226 78 222 89-2 6-31 12-68 13-54 2-83-5-182-42zm-236-3359c-13-14-30-22-40-19-26 7-33-27-97-465-30-207-56-384-59-392-2-8-7-39-10-67-4-47-3-53 14-53 15 0 20 11 27 54 8 50 10 53 32 45 16-6 22-16 22-39 0-20 5-30 15-30 8 0 15-7 15-15 0-19 60-21 78-3 9 9 12 8 12-6s7-17 37-14c33 3 38 7 44 36 6 30-3 43-16 22-9-15-25-12-25 5 0 18-37 38-56 31-9-3-12-1-9 4 12 19-27 24-41 5-13-18-14-17-14 6 0 21-7 28-40 39-22 7-40 20-40 28 0 15 63 449 79 542 5 30 15 94 22 143 10 72 15 87 30 87 16 0 16-2 2-31-8-17-18-68-20-113-5-81-5-83 22-104 15-12 31-22 35-22 3 0 14 66 24 148 9 81 19 159 21 175 4 23 1 27-19 27-12 0-33-11-45-24zm-421-442c0-28-5-37-21-41-19-5-21-11-16-52 3-25 10-47 16-49s11-12 11-23c0-10 7-19 15-19 16 0 21 24 30 143 6 73 6 77-14 77-17 0-21-6-21-36zm597-87-29-22 37-39c39-42 56-42 35 1-7 16-12 40-11 56 3 33 3 33-32 4zm-781-13c-15-39-7-54 29-54 33 0 35 2 35 35 0 32-3 35-29 35-17 0-31-6-35-16z"/>
        <path d="M1702 2264c-44-18-40-34 9-34h42l-6-37c-6-35-5-36 8-19 8 11 15 24 15 29 0 6 7 15 17 22 37 28-34 61-85 39zm-62-82c0-30 132-114 151-95 15 15-14 40-60 53-21 5-50 19-65 31-14 11-26 16-26 11zm-393-219c-6-115-5-129 11-141s17-8 23 55c4 37 7 101 8 141 1 64-1 72-17 72-17 0-20-13-25-127zm-197 37c0-11-7-20-15-20-10 0-15-11-15-35 0-28 4-35 20-35 13 0 20 7 20 19 0 28 26 47 45 31 13-11 15-7 15 24 0 35-1 36-35 36-28 0-35-4-35-20zm490-65c0-33 2-35 35-35s35 2 35 35-2 35-35 35-35-2-35-35zm-78-147c-6-24-25-124-42-223-25-141-32-205-30-295 0-63 1-140 2-170 0-30-3-134-7-231-8-188 2-238 24-123 7 35 17 67 23 70 6 4 7-8 3-30-4-20-4-48 0-63 7-25 10-20 26 42 9 39 18 60 18 48 2-46 19-21 32 44 12 65 17 260 10 408-4 76 64 517 80 523 5 2 9 8 9 14 0 7-19 9-50 6-35-4-50-1-54 9-11 27-34 12-44-29zm-135-985c-7-11-4-35 10-87 8-27 19-3 26 54 3 25 4 37 1 28-3-10-9-18-14-18s-10 8-12 18c-2 12-6 13-11 5z"/>
    </g>
    <g fill="#7BE3B5">
        <path d="M1530 4364c-132-24-195-38-250-55l-66-20 4-35c2-19 5-34 7-34 1 0 28 9 61 21 144 50 213 61 414 66 157 4 198 8 213 21 12 11 14 19 7 26-10 10-342 19-390 10z"/>
        <path d="M1610 4289c-113-8-256-38-326-69-24-10-44-21-44-23 0-3 19-36 42-73 23-38 62-111 86-162 67-138 67-150-3-462-62-276-70-381-33-453l21-42 14 90c8 55 20 100 31 115 44 59 134 81 188 46 46-31 64-88 64-208v-108h33c24 0 42 9 65 33 18 18 32 37 32 41 0 15 141 179 211 247 44 42 69 74 69 87 0 31-37 106-80 163l-37 49-6 148c-4 81-11 185-18 232-6 47-14 141-17 210l-7 125-50 7c-90 13-128 14-235 7zm-424-1719c-50-44-89-124-80-164 27-130 131-376 158-376 21 0 25 30 39 266 10 164 10 210-1 248-7 25-19 46-25 46-7 0-22 3-33 6-15 4-32-4-58-26zm-146-450c0-6-16-10-37-8l-38 3-3-60c-4-75 25-128 72-133 21-3 27 0 23 10-8 21 31 42 49 27 11-9 14-7 14 12 0 34-53 159-67 159-7 0-13-5-13-10zm462-117c-29-139-36-201-23-217 19-23 68-19 129 9 30 14 60 25 68 25s14 7 14 15c0 23-143 214-162 215-12 0-19-13-26-47z"/>
    </g>
    <path fill="#57BBCB"
          d="M1663 6111c-40-38-73-73-75-78s34-41 78-80c61-54 103-103 164-195 195-289 265-359 448-450 98-49 120-64 110-73-16-15-88-54-427-229-256-133-267-138-372-157-152-27-209-51-278-115-109-100-147-248-106-414 9-39 18-70 19-70s28 9 60 21c155 54 426 84 561 61l60-10 135 101c185 140 447 350 617 496 175 150 198 188 198 318 0 103-7 113-153 218-61 44-189 139-284 212-638 488-671 513-678 512-3 0-37-31-77-68z"
    />
    <g fill="#3FA4AE">
        <path d="M1656 6102c-2-4 131-129 297-277 165-149 359-324 431-390s144-132 161-147l29-27-24-26c-32-34-325-242-662-469-287-194-361-257-399-341-10-22-18-56-18-75 0-34 1-34 13 12 34 126 97 182 542 478 355 237 555 378 570 401 3 5-1 20-10 33-19 30-313 301-621 572-299 263-302 266-309 256z"/>
        <path d="M1850 6097c0-8 291-248 455-376 94-73 227-171 297-218s145-105 167-128c68-74 75-148 25-252-20-42-52-75-167-173-151-130-347-290-592-484-82-65-151-122-153-126s3-10 11-13c16-6 261 178 662 497 295 235 324 268 325 372 0 110-30 153-182 262-62 44-188 138-280 209-343 263-568 433-568 430zm-580-3573c0-21 18-54 30-54 6 0 10 16 10 35 0 28-4 35-20 35-11 0-20-7-20-16zm-90-329c0-19 5-35 10-35 6 0 10-9 10-20 0-39 32-90 57-90 13 0 23 2 23 4 0 14-83 176-90 176-6 0-10-16-10-35zm-230-135c0-33 3-40 20-40 15 0 20 7 20 28 0 15 5 33 12 40 9 9 5 12-20 12-31 0-32-2-32-40zm560-29c0-6 11-23 25-38l24-28 1 38c0 33-3 37-25 37-14 0-25-4-25-9z"/>
    </g>
    <path fill="#91492A"
          d="M1253 2578c2-7 15-46 28-87l24-75 7 45c3 24 7 63 7 87 1 42 1 42-35 42-25 0-35-4-31-12zm-510-20c-26-12-30-28-9-28 8 0 27-10 42-23 20-18 28-35 32-75 6-65-30-144-112-250-68-88-76-107-76-176 0-135 91-246 203-246 88 0 216 79 232 143 6 23 2 34-18 55-14 15-33 44-42 66-16 37-15 39 5 61 19 20 19 23 5 29-30 11-44 6-47-16-5-33-25-33-59 2-31 30-31 33-25 98 25 264 19 312-46 352-37 22-53 24-85 8zm1150-90-21-23 34-40c33-39 50-30 20 11-13 16-12 21 1 36 14 16 11 38-6 38-4 0-17-10-28-22zm-798-31c-62-107-78-183-63-302 10-74 39-133 102-207 52-62 121-117 132-105 3 3 8 55 11 116 6 106 5 114-19 159-34 61-92 218-116 312l-19 74-28-47zm599-182c-18-13-16-14 24-15 31 0 42-4 42-16 0-14 2-13 17 2 16 15 16 17-2 30a66 66 0 0 1-81-1zm-34-95c0-11 99-70 118-70 26 0 10 22-25 36-21 8-50 21-65 29-16 8-28 10-28 5zm-134-18c-3-9-8-38-12-64-6-47-5-49 66-148 39-56 78-104 86-107 31-12 119 30 176 85 61 58 67 72 44 91-11 9-19 9-35-1-25-15-36-6-23 19 8 15 6 22-10 32-17 11-23 9-44-10l-24-22v26c0 14-8 31-17 36-15 8-24 4-46-22l-28-32 16 33c22 46 8 63-22 26l-25-29 7 33c4 17 4 32 1 32s-28 9-55 20c-46 18-50 18-55 2z"
    />
    <path fill="#77361E"
          d="M743 2558c-13-6-23-14-23-18s10-5 23-3c33 6 86-32 104-75 14-33 14-50 1-177-18-164-12-197 41-232 43-29 101-32 94-4-3 11 4 27 17 39l22 20-21 7c-38 12-53 59-52 165 2 177-54 291-143 289-22 0-51-5-63-11z"
    />
</svg>