<svg fill="none" viewBox="0 0 1600 1200">
    <g fill="#FDF0E4">
        <path d="M-17.8 942c6 4.9 15.9 5.1 23.2 7.2 7.7 2.2 15.3 4.5 22.8 7.2l-33.8 9c-19.7 5.2-40 9.9-57.4 21-6 4-5.6 13.2-.3 17.4 9.8 7.7 21.4 11.9 33.2 15.3l5.6 1.5a210 210 0 0 0-17.1 8.7c-14 8-28.3 16-38.5 28.8-5.7 7.1 2 16.5 10.2 13.8 14.2-4.8 27-13.2 40.8-19.6a428 428 0 0 1 42.3-17.4c9.6-3.3 11.4-17.4 3.5-23.3A90.2 90.2 0 0 0-19 997c-3.9-.9-8-1.6-12-2.6 11.4-4.1 23.7-6.7 35.1-9.6l62.3-16.4c9.5-2.6 8.1-16.6.3-20a433.6 433.6 0 0 0-36.1-13.9l-12-3.8 6.2-2.2a1794 1794 0 0 1 33.4-11.3c22.2-7.5 44.4-15.1 65.4-25.8 7.3-3.8 12.6-12.2 9-20.6-3.2-7.1-12.5-13-20.5-8.9-28 14.3-58 24.4-87.3 35.5-7.2 2.7-14.3 5.3-21.1 8.7-6.7 3.3-14.9 6.4-20.6 11.4-7.3 6.2-8.9 18-.8 24.5ZM879.4 1205.6c7 4.5 15.2 7.7 23.1 10.4 8.2 2.9 17 5.4 25.7 5 16.8-.8 27.9-12.4 34-27.2 5.6-13.2 8.8-35-5-44.6-6.5-4.5-16-4.4-23.4-3.7-8.3.7-16.8 2.6-24.4 6.3-5.9 2.9-11.3 7.8-12.3 14.5-1.2 7.6 3.4 14.6 8.2 20a28.2 28.2 0 0 0 20.6 10.6c7.3 0 14.9-3.7 18.7-10 3.8-6.3 3.1-16.3-4.3-19.8a8.5 8.5 0 0 0-12 9c.4 2.9 5 3.4 6.1.9.7-1.4.6 1.8.2 2.6a6.7 6.7 0 0 1-3.1 3c-3.6 2-7.6 1.5-11.2-.2a26 26 0 0 1-9.8-8.8c-3.3-4.7-2.6-7.7 2.2-10.6a53 53 0 0 1 31.8-5.3c11.6 1.6 10 16.4 7.4 24.9-2.5 8.2-7.4 17.9-15.4 21.9-9.5 4.8-21.3-1-30.1-5.1-7.7-3.7-19.6-8.6-23.5-16.7-3.8-8-3-20-.7-28.1 2.7-9.7 11.4-15 20.6-17.5a64.3 64.3 0 0 1 17.5-1.8l9.6.3c4.5 0 7.3-.5 11.4-2.5 5.5-2.6 4-9.8 0-12.8-7.3-5.5-18.9-5.1-27.8-4.7-8.9.3-17.5 2-25.7 5.7a45.2 45.2 0 0 0-26.4 39.3c-1.1 17.5 2.5 34.9 18 45ZM1254.5 239.1a181 181 0 0 1-13.3-43.8c-2.2-13.4-3.2-27.3 9.1-36.2 5.4-4 12-6.3 18.6-7.3 7-1.2 13.9-.3 21-.6 17.2-.8 19.8-20.5 17.9-34.1-2.2-14.9-9.4-29.1-17-41.8a206.3 206.3 0 0 0-29.3-36.9 413.1 413.1 0 0 0-77-59.7 607 607 0 0 0-51.6-29.4c-10.2-5-31.5-16.9-40.5-4.7-1.1 1.6-.2 3.3 1.5 3.8 5.6 1.4 11 2.3 16.5 4.7 6.7 3 13 6.8 19.5 10.3a585.3 585.3 0 0 1 42.6 25.3c26.5 17.5 52.1 36.7 74.6 59.2a199.8 199.8 0 0 1 27.5 33.6 103.7 103.7 0 0 1 16.6 38c.4 2.8.7 5.7.4 8.6-.2 1.6-.3 3.4-.8 5-.5 1.7-.3 1.6-1.2 2-2.5.9-6.4 0-9.1 0-3.7 0-7.4.2-11 .8-13.5 2-26.8 7-35.9 17.4-10.7 12.2-11.2 29.5-7.7 44.6a99.2 99.2 0 0 0 22.6 44.2c2.5 2.8 7.8.7 6-3ZM279.7 1113.5c1.1 1.4 2.4 2.3 4.2 2.6a6 6 0 0 0 5.2-1.7c.8-.8 1.5-2 1.8-3a7 7 0 0 0-.8-9.1c-.6-.6-1.3-1.1-2-1.4-.5-.5-1-.7-1.5-.9l-1-.2a6.5 6.5 0 0 0-4 0 7.9 7.9 0 0 0-5.4 7.5 7.8 7.8 0 0 0 3.5 6.2ZM254.7 1109.3c1.8.3 3.6.3 5.3-.5a8.7 8.7 0 0 0 5.2-10.4c0-.5-.3-.9-.5-1.2 0-.3-.2-.6-.4-.9-.4-.9-1.2-1.7-2.1-2.3a9 9 0 0 0-3-1.6c-1.4-.5-3-.5-4.4 0l-1.3.5c-.3.3-.7.3-1 .5a9.1 9.1 0 0 0-4.6 7.8c.3 3.6 3.2 7.4 6.8 8ZM275.3 1084.3a9 9 0 0 0 10.7 6.3l5.1-.9c2.2-.3 4-2 5.2-3.9a3 3 0 0 0 1-.9 7.7 7.7 0 0 0 2.2-5.3 8 8 0 0 0-2.3-5.5 7.7 7.7 0 0 0-6.1-2.1l-.8-.3c-4.2-1.5-8.9 0-11.4 3.4a8.5 8.5 0 0 0-3.6 9.2ZM236 1072.5c1.2 2.3 3 4.2 5.4 5.5 3.7 2.2 8.5 3 12.6 2 3.3-.8 6-2.7 7.8-4.9 2.2-2.4 3.7-5.5 3.7-9 0-1 0-1.8-.2-2.7a15 15 0 0 0-2.6-7.1c-4.6-7-14.2-11.7-22.2-6.7-8 5-10.1 15.5-4.5 22.9ZM221 1101.3l.6 1c2 4.6 8.5 6 12.1 2.3a22 22 0 0 0 3.9-5.1 7.3 7.3 0 0 0 1-4c0-.8-.2-1.5-.3-2.3-.2-1.1-1-2.4-1.8-3.2a7.4 7.4 0 0 0-5.8-2c-.5 0-1-.3-1.3-.3a8 8 0 0 0-5.5 1c-1.7 1.2-3.5 3-4 5.1-.1.9-.3 1.8-.3 2.8.1 1.8.6 3 1.4 4.7ZM284.7 1057l.2.2c.8 1.7 2 3 4 3.3 1 .4 2.2.4 3.3.1a7 7 0 0 0 4.7-8.4 9.6 9.6 0 0 0-4-5.5c-.6-.4-1.2-.6-1.9-.8l-.2-.1a6 6 0 0 0-3.4-.7 5.4 5.4 0 0 0-4.7 5.3c0 .7 0 1.5.2 2.3 0 1.4.7 3 1.8 4.3ZM316.6 1101.7a7.8 7.8 0 0 0 3.5 5c.8.8 1.8 1.5 3.2 1.9 1.7.4 4.2.2 5.8-.7l1.2-1c1.5-.9 2.6-2.2 3.4-4a7 7 0 0 0 .8-3.3c0-.9-.1-1.7-.3-2.4-.2-.7-.5-1.4-.9-2-.8-2-1.8-4-3.8-5a9.4 9.4 0 0 0-5.5-1 8.7 8.7 0 0 0-7.5 10.2c0 .6 0 1.3.2 2v.3ZM315 1070l.4.5c1.6 1.7 4.5 2.8 6.8 1.9a7.6 7.6 0 0 0 5.5-7c.2-2-.8-4-1.9-5.5a9.2 9.2 0 0 0-4.5-3.4c-3-1-6-.4-8.6 1.1a6.7 6.7 0 0 0-3.5 5.8 7.3 7.3 0 0 0 5.9 6.7ZM214.7 1136.4a6.7 6.7 0 0 0 2.5 2.7c1 1 2 1.5 3.4 1.7 1.2.5 2.5.5 3.9.3a9.8 9.8 0 0 0 7.3-4.7c.8-1.8 1.3-3 1.4-5.1 0-3.6-1.9-6.9-5-8.8a7 7 0 0 0-3.5-1.1 7 7 0 0 0-3.8.2l-2.5.9a7.5 7.5 0 0 0-2.8 2.5c-.5.5-1 1.3-1.2 2.2-.6 1-.9 2.3-.9 3.6v.5c-.2 1.8.3 3.6 1.2 5ZM251.6 1130.1c0 .4.3.7.4 1l.8 1.3s0 .3.2.4a7.4 7.4 0 0 0 3.6 3.2c.6.3 1.2.5 2 .5a4 4 0 0 0 1.9 0c.7 0 1.4-.2 2-.5.9-.3 1.8-.8 2.5-1.6l.7-.8c.5-.5 1-1.2 1.3-1.8.6-1 .8-1.7 1-2.5 0 0 .1 0 0-.1l.4-2.3a7 7 0 0 0-.7-3.4c-.2-.8-.5-1.4-1.1-2-.7-1-1.5-1.7-2.4-2.3-1.5-.8-3-1.3-4.8-1.3a8.5 8.5 0 0 0-7.8 12.2ZM200.6 1079c.6.7 1.3 1.1 2 1.4a9.8 9.8 0 0 0 14.2-6.2c1.6-3.1 2.1-6.9 1.2-10.5a11 11 0 0 0-5-6.5c-.8-.5-1.8-.8-2.8-1-.9-.3-2-.5-2.9-.5-4 0-7.4 2-9.5 5.3a16.2 16.2 0 0 0-1.7 8.7c-.3 3.6 1.5 7.3 4.5 9.3ZM343.6 1088c.8 1 1.8 1.6 3 2 1.1.5 2.4.9 3.7.8l2.5-.3a9 9 0 0 0 4.3-2.5l.2-.1 1.5-2 1-2.3c0-.8.3-1.7.4-2.5a19.7 19.7 0 0 0-.7-4.2l-.6-1.5a4 4 0 0 0-1.3-2.2l-.9-1a9.2 9.2 0 0 0-4.1-2.5c-1-.2-1.8-.4-2.6-.4h-.1l-2 .2h-.3l-2.3 1s-.3 0-.3.2c-.5.3-.9.6-1.2 1l-.3.1-.9 1s-.2.1-.1.2l-.2.2a8.2 8.2 0 0 0-1.7 5.3v1.6c.1 0 0 .3 0 .4 0 3 1 5.6 3 7.5ZM295.8 1125.6a12 12 0 0 0 6.2 5.3l1.7.7c.9 0 1.8.3 2.6.4l2.7-.3c1.4-.3 2.6-.9 3.6-1.9.8-.4 1.3-1 1.8-1.8a4 4 0 0 0 1.3-2.2 5 5 0 0 0 .7-2.4c.2-1 .2-1.9 0-2.8.3-.8.3-1.6 0-2.5 0-.6 0-1.2-.2-1.8l-1.2-2.8a7.8 7.8 0 0 0-2.8-3.2 6.3 6.3 0 0 0-2.5-1.4c-1.3-.7-2.7-1-4.2-1-2 .1-4 .6-5.8 1.5a7.8 7.8 0 0 0-3.1 2.9c-1 1-1.7 2.3-2 3.7a12 12 0 0 0 1.2 9.6ZM185.6 1116.7c1 1.8 2.5 3.2 4.1 4.3 2.5 1.6 5.8 1.8 8.6 1.1a13 13 0 0 0 9.9-12c0-2.4-.7-4.4-1.8-6.5-1-2-3.8-4.2-6-4.7l-2.7-.4c-1.4 0-2.7.2-4 .8l-2.4 1.4a9.7 9.7 0 0 0-4 2.4l-1.1 1.4-.2.3c-.2.2-.3.6-.6.8l.2-.2a9.4 9.4 0 0 0-1.6 5.6c0 2.1.5 3.7 1.6 5.7ZM1378.6 498a6.2 6.2 0 0 0 3.4 3.6 6 6 0 0 0 5.4-.3c1-.6 2-1.5 2.6-2.5a7 7 0 0 0 1.5-9c-.5-.7-1-1.4-1.7-2l-1.2-1.1-.9-.4a6.6 6.6 0 0 0-3.9-1.1 7.9 7.9 0 0 0-7.1 6c-.5 2.5.2 5 1.9 6.9ZM1355.4 487.7c1.7.8 3.4 1.2 5.3.9a8.7 8.7 0 0 0 7.7-8.8l-.2-1.3-.2-1c-.2-1-.8-2-1.5-2.7a9.2 9.2 0 0 0-2.5-2.3 6.8 6.8 0 0 0-4.2-1.1c-.5 0-.9 0-1.4.2-.4 0-.8 0-1.2.2a9.1 9.1 0 0 0-6.3 6.4c-.6 3.5 1.2 7.9 4.5 9.5ZM1381.6 468.7a9 9 0 0 0 8.8 8.8c1.7 0 3.5.2 5.2.4 2.2.2 4.4-1 6-2.5a3 3 0 0 0 1.1-.6c1.7-1.1 3-2.6 3.5-4.6a8 8 0 0 0-.8-6 7.7 7.7 0 0 0-5.4-3.5 10.2 10.2 0 0 0-12.6 0 8.5 8.5 0 0 0-5.8 8ZM1346.6 447.4c.6 2.5 1.9 4.8 3.8 6.7 3 3 7.5 5 11.7 5 3.4 0 6.4-1 8.8-2.7a13.6 13.6 0 0 0 6.3-10.5c.4-2.4.2-5-.7-7.5-2.7-8-10.8-15-19.8-12a15.7 15.7 0 0 0-10.1 21ZM1324.8 471.5l.3 1.2a7.7 7.7 0 0 0 11.2 5.2 22 22 0 0 0 5-4c.9-1 1.8-2.2 2-3.5l.3-2.4c.1-1.1-.4-2.6-1-3.5-.8-1.3-2-2.3-3.4-3l-1.7-.4-1.2-.6a8 8 0 0 0-5.5-.4c-2 .7-4.1 1.9-5.1 3.9l-1.1 2.6c-.3 1.8-.1 3 .2 4.9ZM1397.6 444.6l.1.2c.4 1.9 1.3 3.5 3.1 4.3.9.6 2 .9 3.1.9a7 7 0 0 0 6.7-7c0-2.4-1-4.6-2.5-6.3-.5-.5-1-1-1.6-1.2l-.2-.2a6 6 0 0 0-3.1-1.5 5.4 5.4 0 0 0-5.9 3.9l-.4 2.3a7 7 0 0 0 .7 4.6ZM1417.3 495.9c-.1 2.2.7 4.2 2.1 5.7.6 1 1.4 1.9 2.6 2.6 1.6.9 4 1.3 5.8.8l1.4-.6a8.5 8.5 0 0 0 4.3-3 7 7 0 0 0 1.6-3.1l.3-2.4-.3-2.1v-.1c-.3-2.1-.8-4.2-2.5-5.7a9.4 9.4 0 0 0-5-2.4 8.7 8.7 0 0 0-9.9 8c-.2.6-.3 1.3-.3 2l-.1.3ZM1423.7 464.9l.2.5c1.2 2 3.7 3.8 6.1 3.5h.1a7.6 7.6 0 0 0 7-5.4c.7-1.8.3-4.1-.4-5.8a9.2 9.2 0 0 0-3.6-4.4 10.4 10.4 0 0 0-8.6-1.1 6.7 6.7 0 0 0-4.8 4.7c-.6 3.3 1 6.6 4 8ZM1309.9 503.9c.3 1.3.9 2.4 1.8 3.3a6.8 6.8 0 0 0 2.8 2.5c1.1.7 2.3 1 3.7 1.2 1.3.3 2.6.2 3.9-.2a9.8 9.8 0 0 0 4.3-2.5c1.3-1.5 2.1-2.6 2.7-4.6.9-3.5-.1-7.1-2.6-9.7a7 7 0 0 0-3.1-2 7 7 0 0 0-3.8-.8c-.9 0-1.7.2-2.6.3-1.3.3-2.4.9-3.3 1.7-.7.4-1.3 1-1.8 1.8-.8.9-1.4 2-1.7 3.3l-.2.5a8.4 8.4 0 0 0-.1 5.2ZM1347.2 507l.1 1.2.5 1.4.1.4c.4 1.6 1.4 3 2.7 4 .5.5 1 .8 1.7 1 .6.3 1.2.5 1.9.5.7.2 1.4.2 2 0 1 0 2-.3 2.9-1l.9-.5 1.7-1.4c.8-.8 1.2-1.5 1.6-2.2l.1-.1.9-2.1a7 7 0 0 0 .2-3.5c0-.8-.2-1.5-.6-2.2-.4-1.1-1-2-1.8-2.8a9.8 9.8 0 0 0-4.3-2.5 8.5 8.5 0 0 0-10.6 9.9ZM1310.7 444.8c.4.8.9 1.4 1.5 1.9a9.8 9.8 0 0 0 15.3-2.4 15 15 0 0 0 3.8-10 11 11 0 0 0-3.1-7.4c-.7-.7-1.6-1.3-2.5-1.8a13 13 0 0 0-2.7-1.2 11 11 0 0 0-10.5 2.8c-2.3 2.2-3.1 5-3.9 8-1.2 3.4-.3 7.4 2.1 10ZM1446.8 489.4c.6 1 1.4 2 2.5 2.7.9.8 2 1.4 3.3 1.7l2.5.3c1.7 0 3.3-.4 4.8-1.3l.2-.1 2-1.5 1.5-2 1-2.3c.2-1.1.4-2.3.4-3.4v-1l-.2-1.5a4 4 0 0 0-.7-2.4l-.6-1.3c-.8-1.4-2-2.6-3.4-3.4-.8-.4-1.6-.8-2.4-1h-.1c-.6-.2-1.3-.2-1.9-.3l-.4-.1-2.4.3a19.6 19.6 0 0 0-1.8.8h-.3l-1.1.8c-.1 0-.2 0-.2.2h-.2a8.2 8.2 0 0 0-3 4.8l-.3 1.6-.1.4a10 10 0 0 0 .9 8ZM1391.1 513.8a12 12 0 0 0 4.7 6.7c.5.4 1 .8 1.5 1 .8.4 1.6.8 2.4 1l2.7.5c1.4 0 2.7-.2 3.9-1 .9-.1 1.6-.6 2.2-1.2a4 4 0 0 0 1.8-1.8 5 5 0 0 0 1.3-2.2c.4-.8.7-1.7.8-2.6.4-.8.6-1.6.6-2.5.2-.6.2-1.2.2-1.8l-.4-3c-.3-1.5-1-2.7-2-3.8a6.4 6.4 0 0 0-2-2 8.2 8.2 0 0 0-3.8-2c-2-.4-4-.4-6 0-1.5.3-2.7 1-3.8 2a8.6 8.6 0 0 0-2.9 3 12 12 0 0 0-1.2 9.7ZM1286.7 477.6a11.4 11.4 0 0 0 10.9 8.4 13 13 0 0 0 12.6-9.1c.6-2.4.4-4.5-.1-6.8s-2.6-5-4.7-6.1l-2.4-1a8.2 8.2 0 0 0-4.1-.2c-.9 0-1.8.4-2.7.7-1.5 0-3.1.5-4.4 1.3l-1.5 1-.2.3-.8.7.2-.2a11.1 11.1 0 0 0-2.8 11ZM202.4 93.4c-23 15.7-38.5 40.5-48.4 66.1-9.6 24.5-16.6 52.7-12.8 79.2 4.4 29.3 23.5 58 40.1 81.8 28.6 41 69.9 81.5 124 77.3 56.2-4.5 77.9-58 77.2-108-.6-51.5-22.2-105.9-73.4-125.3-22.4-8.4-50.2-8.8-69.6 6.8-19 15.3-29 40.6-31.5 64.2-3 27.8 2.7 59.1 21.4 80.7 15.9 18.3 44 28.6 67 18a45.3 45.3 0 0 0 22.5-59c-9.4-19.8-33.7-31.4-53.9-22-.5.3 0 1 .4 1 19.6-.9 40.7 11 40.6 32.6a33.2 33.2 0 0 1-33.3 33.7c-46.4-1-54.9-66.7-44.3-100.8 6-19.3 21.9-36.2 42.8-38.2a68.1 68.1 0 0 1 50.2 17.4c31 26.8 39.5 73.3 34.3 112.3-2.4 18.1-8.7 36.8-22.8 49.1a60.7 60.7 0 0 1-52 12.6c-41.3-8.7-70.2-48.4-90.6-82.2-11.5-19.1-23.3-41.3-22.4-64.2.6-19.8 7.9-40.4 16.8-57.8 8.8-18 20.3-37.6 37.9-48.2 16.4-9.9 36-7.6 53.5-1.4 38.3 13.2 65.8 48.6 87.5 81.2a321 321 0 0 1 31.9 59c8 20.6 15.5 42.6 16.9 64.6.5 7.7 12 9.7 14 1.6 5.7-25.4 5-50.8-3.5-75.6a312.6 312.6 0 0 0-35-68c-26.4-40.4-60.2-84.5-109-98.3-25.4-6.9-54.1-5.3-76.5 9.8Z"/>
        <g opacity=".5" style="mix-blend-mode:multiply">
            <path d="M1264.2 1200c-2.3-3.8-4.8-7.4-6.7-11.3a290.8 290.8 0 0 1-25-77 74.4 74.4 0 0 1-.6-20 35.3 35.3 0 0 1 32.6-33.5c9.7-1.1 19.7-.5 29.5.3 19 1.5 38 2.9 57.2-.5a98.1 98.1 0 0 0 59.6-34.7 62.2 62.2 0 0 0 13.8-28c1.5-7.3 1-14.6-2.5-21.3a66.3 66.3 0 0 0-29.7-29.8 42.3 42.3 0 0 0-43.8 5.3v.7c7.4 6.7 9 15.3 7.9 24.7l-1 8c-2.3 13.6-12.8 20.7-26.3 17.8-18.1-4-27.3-19.4-21.7-37.1 7.5-23.4 24.2-37.8 46.5-46.3 46-17.6 96.9 14.8 104.3 60.7a74.2 74.2 0 0 1-10 49.7 126.7 126.7 0 0 1-86 62.5 218 218 0 0 1-69.8 2c-6.3-.7-12.6-1-19-1-7.6 0-10.3 2.3-10.3 10 0 6.3.8 12.6 2.1 18.8a286 286 0 0 0 27 74c1 1.9 1.7 4 2.6 6h-30.7Z"/>
            <path d="M1352.6 1200c-1-2.3-2.2-4.6-3.3-6.8-4.5-9-8-18.1-8.6-28.2-.9-13.5 5.6-23.8 18.6-28a92.8 92.8 0 0 1 20.8-3.7c16.2-1.2 32.4-1.2 48.2-5.7 16.3-4.7 32-10.8 47.2-18.6l7.2-4.2c14-8 22.1-19.7 23.8-36 .8-8 1.2-8-6.1-11-7-2.7-13.2-6.8-18.2-12.4a27.7 27.7 0 0 1-5.4-8.2 11 11 0 0 1 12.6-15.2c3.3.6 6.3 2.4 9.6 3.3 6.5 1.9 13 4 19.7 5a19 19 0 0 0 18-7c4.5-5 8.6-10.5 13-15.7 2.1-2.5 4.3-5 7-6.8 5.3-3.4 11.1-1.5 13.6 4.3 1 2.3 1.6 5 1.3 7.4-2.1 17.6-8.8 33-24.2 42.7-5.1 3.3-6.8 6.4-7.1 12.4a76.8 76.8 0 0 1-36 63.6 178 178 0 0 1-78.4 27.8c-11.8 1.3-23.8 1.1-35.7 1.6l-19.3 1c-3.3.2-4.7 2-3.6 5.2 2 6 3.8 12 6.2 17.9 2.2 5.2 5 10.2 7.7 15.3h-28.6ZM1613 810c-7-2.8-14.2-4.9-20.6-8.5-23-13.3-34.3-38.8-30.4-66.7 3.5-25 16.4-44.8 34.2-61.8 5.1-4.8 11.1-8.7 16.7-13v30.8c-.4.2-.9.3-1.2.7a88.6 88.6 0 0 0-27 43.4 44.7 44.7 0 0 0 4 35.4 36.4 36.4 0 0 0 24.2 17.8v22ZM1613 592l-3 3.3a106.6 106.6 0 0 1-28.9 27.5 79.9 79.9 0 0 1-17.7 7.4c-5 1.5-9.7-.2-13-4.6a12 12 0 0 1-.4-14.1c2.2-3.6 5-7 8-10 6.5-7 13.7-13.5 20.1-20.6 16-17.9 26.7-38.6 32.6-61.9.5-2 1.5-4 2.2-6v79ZM13.7 419.8l-35 43.2-1.3-.6c0-4.4.3-8.9-.1-13.2a34.7 34.7 0 0 1 8-26.9 83 83 0 0 0 11.9-22.8c4.3-11.4 14.4-15 23.8-7.1 8 6.6 15.6 13.7 23.5 20.3 10.3 8.7 20.8 17.2 31.3 25.7 1.9 1.5 4.1 2.6 6.5 4 0-1 .2-1.5.1-2-6.6-41.5-27-74.2-62.5-97-12-7.7-25.2-12.1-39-15.1-2.7-.6-3.7-1.7-3.6-4.6.2-8.2 0-16.3 0-24.5l.3-3.6 12.4 2.3c29.2 6 53.4 20.9 74.2 42 31.5 32 49.4 70.2 54 114.8.4 3 .6 6 .4 9.1a16.8 16.8 0 0 1-20.7 15.8c-2.8-.6-5.6-1.7-8.2-2.9-14.2-6-27.3-14-39-24.2l-22.3-20c-5-4.5-10-8.8-14.7-12.7ZM1594.3 924c.4 21.5-16 40.7-38.7 45.5a62.2 62.2 0 0 1-31.8-1.4 85 85 0 0 1-45.6-30.6 307.7 307.7 0 0 1-18.2-28.6c-6.5-11.5-12.3-23.5-18.5-35.2-2.5-4.8-5-9.8-1-14.7 4-4.8 9.8-5.3 15.5-4a131 131 0 0 1 33.4 12.2c6 3.1 12 6.3 18.3 9 11.4 4.9 23.1 5.9 34.9 1.3 1.1-.4 2.3-.9 3.2-1.6 4.9-4 10.3-4.3 15.4-1.5 15.1 8 32.7 25.6 33.1 49.6Zm-120.8-36.7a121 121 0 0 0 23.2 38.6 63.1 63.1 0 0 0 39 20.2c5.8.8 12.2-.3 18-1.9a22.2 22.2 0 0 0 15.5-16.5c3-10.8-3.5-27.8-13-34h.3c-4.2 3.3-7.5 6.6-11.4 8.8-8.7 5-18.3 6.6-28.3 5.2a86 86 0 0 1-38.1-16.5l-5.2-3.9ZM64 13.8c16.4-.2 32.1 2.5 46.7 10A66 66 0 0 1 132.4 41a45 45 0 0 1 7.7 44.8c-3 9.3-8.5 17.2-15.3 24.2a118.2 118.2 0 0 1-73 34.5c-6.9-.2-11.8-3.8-13.4-9.4-1.6-5.8 1-11.7 6.9-15.2 2.5-1.4 5.3-2.4 7.8-3.8 11.4-6 23-11.7 34-18.5 6.2-3.9 11.8-9 16.5-14.7 9-10.7 7-19.8-5-27-10-6-21.3-8.9-32.6-11.2-9.4-1.9-19-2.5-28.6-3.7a29 29 0 0 1-3.6-.7 11.5 11.5 0 0 1-8.9-10.4 11 11 0 0 1 7.2-11.2C36.4 17 41 16 45.5 15.2c6.1-.8 12.3-1 18.5-1.4ZM106.2 581.6c-25.8 0-47-18.6-48.6-39.6-1.8-26 22-45.1 47.9-38.5 7.4 2 14 5.6 19.5 11 1 1 1.9 2 3 2.7a35 35 0 0 1-3.1 58.2c-6.7 4.1-14 6.2-18.7 6.2Zm-7.6-49.5c-1.5.2-3.7.4-5.8 1-9.2 2.5-11.4 11-4.8 17.9 4.9 5 14.6 6.5 20.7 3a8.8 8.8 0 0 0 5-7.9c0-8.1-4.2-13-12.2-13.8l-3-.2ZM1506.5 800.5l-2.2-3.7a17 17 0 0 1 1.5-19.8c4.7-5.4 12.3-6.8 19.5-3.6 11.2 4.8 17.6 18.8 15 32.3a29 29 0 0 1-25.5 23.3 55.4 55.4 0 0 1-41.6-11.3l-1.4-1.2c-4.8-4.7-6-10.8-3-15.5 2.9-4.6 8.5-5.8 15-3.5 7 2.4 14.4 3.1 22.7 3ZM1571.6 1155.8c-.5-4.2-1.5-8.2-1.2-12.1.4-6.5 1.3-13 2.5-19.4.8-3.6 3.8-5.7 7.6-5.8a8 8 0 0 1 8 5.2 11 11 0 0 1 1 5c-.9 10.1 2 19.5 5.3 28.9.5 1.4 1 2.8 1.3 4.2.9 5.2-1.7 9.3-6.8 10.4-3 .7-6 1.1-9 1.4-9.2.7-18.4 1.4-27.7 1.9a89 89 0 0 1-12.7-.3c-5.7-.5-9.2-4.2-9.2-9 0-5 3.7-8.5 9.4-8.9 10.4-.6 20.8-1 31.5-1.5ZM1289.8 926.3a79.9 79.9 0 0 1-12.8 37.3c-3.7 5.8-9.9 7.5-15.2 5-5.3-2.3-7.9-8-6.3-14.8 1-4.2 2.6-8.3 3.8-12.5 1.2-4 2.4-8 3.2-12 1.4-6.8.2-9-5.8-12-3.6-2-3.9-3.5-1-6.4 10-10.4 24.9-8.1 31 4.9 1.8 3.6 2.3 7.9 3 10.5ZM1596.7 353.5c-.4 1.9-.8 4.7-1.5 7.4a37.2 37.2 0 0 0-.6 17.7c.5 2 .6 4.4.2 6.4a8.8 8.8 0 0 1-12 6.7c-2.5-1-4.8-2.8-6.8-4.7-4.9-5-9.5-10-14.2-15.2-3.2-3.5-3.8-7.4-1.2-11.4 1.9-2.7 4.3-5.4 7-7.1 5.6-3.5 11.5-6.4 17.4-9.3 5.2-2.5 11.8 2.5 11.7 9.5ZM1512.3 707.3c-15.1-.4-22.8-13-16.6-25.8 4.7-9.6 13.5-14.4 22.4-12.2 13 3.2 18.3 15.8 11.6 27.3a20 20 0 0 1-17.4 10.7Z"/>
            <path d="M31.3 71c7.9.5 13 2.3 15.8 8 2.4 5.1 1.1 9.9-2.4 14-4.2 4.9-9.6 6.8-16 5.2-2.4-.6-4.8-1.7-7-3C14.4 91.2 14 80 21.4 75c3.4-2.3 7.7-3.2 9.9-4ZM16.9 571.4c6 0 10.5 4.2 10.4 9.8 0 5.6-4.8 10.1-10.7 10a10 10 0 0 1-9.8-10.1c0-5.5 4.5-9.8 10-9.7Z"/>
        </g>
    </g>
    <defs>
        <clipPath id="a">
            <path fill="#fff" d="M0 0h1600v1200H0z"/>
        </clipPath>
    </defs>
</svg>