<svg xmlns="http://www.w3.org/2000/svg" fill="none" viewBox="0 0 357 363">
    <g clip-path="url(#a)">
        <path fill="#FF8264"
              d="M43.4 297a173.8 173.8 0 0 0 57.3 44.3c6.2 3 12 6 18.8 8.6l5.2 2a235.7 235.7 0 0 0 12 3.2c2.1.5 4.4 1 6.9 1.2A175 175 0 0 1 75.9 326a183.7 183.7 0 0 1-50.2-55.6 37 37 0 0 1-2.2-3.5l-1.6-2.6-1.5-3c-1-2-2.2-4.1-3.1-6.1l-2.5-5.3a166.6 166.6 0 0 0 21 37.4l-1.2-1.5c2.8 3.9 5.7 7.6 8.8 11.2Zm-8.8-11.2-.3-.3.3.3Zm-32-82.5-1-7.4c.5 4.5 1 9.6 2.1 14.6l-.6-3.6-.5-3.6Zm162 152.5c12.7 1.3 26 .9 39.1-1.2 13.2-2 26-5.7 37.9-10.4a173 173 0 0 1-68 11.8c-3.1 0-6.1 0-9-.2Z"/>
        <path fill="#FF8264"
              d="m89 329.7-.5-.3c.2 0 .3.2.5.3Zm18.5 10.2Zm231.8-134.6.7-7.7a209 209 0 0 0 1.4-26.4c-.2-1.5-.8-4.3-1-7.5l-1.1-9.4-1.6-9c4.3 22.2 4.2 44.5.2 65.6l1.4-5.6Z"/>
        <path fill="#FF8264"
              d="M1.7 160c1.6-13.2 5-26 8.4-34.7l-1.4 6.3c.9-1.8 2.2-6.1 4-10.6l1.3-3.5 1.5-3.3c1-2.2 1.7-4.3 2.6-5.8l-1.8 4.6-2.2 5 3-6.6a190 190 0 0 0-12.4 47.4l-.6 5.7c0 1.8-.3 3.6-.3 5.2l-.2 8.5c.2 4.6.5 7 1 5.7.7-2.6.7-15.7 3.4-32.2a170.2 170.2 0 0 1 16.9-51l-1.1 2.6-1 2.5-2.2 5.2-2 5.3-1 2.7-.8 2.8c-2.6 7.3-4.5 15-6.1 22.7l-1 5.8c-.5 2-.6 4-1 6C8.3 160 8 164 7.7 168a160 160 0 0 0 .2 22.9V186l.2-4.6.2-5 .4-6.6c.8-12.6 3-25.2 6.5-37.3 3.4-12.2 7.4-23 13.3-32.7l1.5-2.9 3-5.9c1.2-2.1 2.4-3.7 3.4-5.2l2.8-4 7-9.8c.2 0 0 .4-.3 1 1.2-1.7 2.4-3.3 3.8-4.9l4-4.9c.3 0 .6 0 1.2-.5 16.6-17.6 37-32 60-41l5.1-2 5.2-1.7 2.6-.9 2.6-.7 5.2-1.5 9-2 4.7-.9c1.5-.2 3.1-.6 4.7-.7 3.2-.4 6-1.2 7.6-1.4 8.3-.5 16.7-.4 26.5.4l3.3.2c1.4 0 3 0 4.5.2l5.7 1.2c12.2 2 24 5.3 35.2 9.8l4.3 1.7 4.4 2c3 1.3 6 3 9 4.6 1.6.7 3 1.7 4.5 2.6l4.5 2.7c2.9 1.9 5.8 3.7 8.5 5.8 4.3 3.1 8.6 6.4 12.6 10l.3.2 2.9 2.6 2.7 2.7 2.6 2.6 2.6 2.8c-.4-.7-.4-1-.4-1.2l-4.4-4.2 6.6 6.1 2.3 2.8 2.2 3 2.5 3.1 2.4 3.4c4.2 5.4 8 11.3 11.6 17.2 1.6 3 3.5 6 5 9.2l2.3 4.6 2 4.8c.7 1 .4 0 .5-.1 2.4 5.7 4.2 11.6 6 17.5 3.2 10.8 5.4 21.8 6.5 33l1 8-.3 5.6c0 2.1.2 4.2 0 6.3l-.2 6.4-.3 4.7-.5 5.5-.8 6.1-1.1 6.7c-2 10-4.7 20-8.3 29.7l-1.1 3.5c-1.2 2.9-2.5 5.7-3.8 8.4-1.3 2.7-2.6 5.4-4 7.9a165 165 0 0 1-15.3 23.7l-1.9 2.5-1.9 2.3-3.6 4.3c-2.4 2.6-4.4 5-6.3 6.8-2.1 2.3-2 2.4-.5 1.3l3.1-2.4 4.1-3.7 4.3-4.1c1.3-1.4 2.7-2.7 3.7-3.9 2.2-2.2 3.5-3.6 3.2-3a99 99 0 0 1-18.6 23c-4.7 4.3-9.9 9-16 13.4-3 2.4-6.4 4.5-9.8 6.9-3.5 2.1-7 4.5-11 6.6-8.6 4.6 6.4-2.9 6.9-3-1.5 1.2-3 2.3-4.6 3.2-2.8 1.5-5.6 3-8.6 4.4l-5.1 2.3-5.2 2.2 2.7-1c5.7-2.3 11-5 15.7-7.6l-5.9 3.5-7 3.6-7 3.3a168.7 168.7 0 0 0 89.5-75.4c6.6-11.6 12-23.8 15.9-36.5-6 19-15.5 36.6-26.8 51.4 20.6-27.9 32.9-62 34.5-97.1 0 2-.2 3.8-.3 5.8l-.5 5.8c-.5 3.8-.8 7.7-1.6 11.5-1.2 7.7-3.1 15.2-5.3 22.6a178.7 178.7 0 0 0 6-84.5c3.7 18.5 4.3 39.4 1.1 60 2.3-13.3 2.8-27 2-40.6-.2-5.2-.8-10.4-1.3-15.2-.8-4.7-1.3-9.1-2-12.7 2.8 13.1 3.9 24.3 4.4 34.8a184 184 0 0 0-14.6-68c5 11.8 9.3 24.6 11.8 37.7a166 166 0 0 1 3 39.4v-4.5l-.2-4.6A180.4 180.4 0 0 1 315 289c7-8.2 14.5-19.8 20.4-32.6 6-12.8 10.3-26.6 13.3-38.7a176.3 176.3 0 0 1-138.4 137.5 181.4 181.4 0 0 1-67.1.5l5.7 1.1 5.8.9c4 .6 7.8.8 11.7 1.2a177.8 177.8 0 0 0 46.9-3c3.8-.9 7.7-1.6 11.5-2.7l5.8-1.6 5.6-1.9c-2.8 1-5.9 2.1-9 3l-4.1 1.2a176 176 0 0 0 35.6-13.9 188.7 188.7 0 0 1-62 19.7l-5.9.6-4.6.5-6.2.5c-2.9.2-3.3.5-2.1.7 1.1.2 3.8.4 7 .5 3.3 0 7.1-.2 10.6-.5a179.6 179.6 0 0 0 150.6-117.7c.7-1.8 1.2-3.7 1.8-5.5l1.7-5.6c1-3.8 2-7.5 2.8-11.4l1.1-5.7 1-5.8.4-2.9.4-2.9.6-5.8a197.1 197.1 0 0 0-7.9-75l-2.2-6.7-2.3-6-1-2.7-1.2-2.5-1.8-4a182 182 0 0 0-52.8-64.2l-4.3-3.3-4.5-3-2.2-1.6-2.3-1.5-4.7-2.8a183.9 183.9 0 0 0-40.6-18c-3.6-1-7.2-2-11-2.8l-5.5-1.2-5.7-1a170 170 0 0 0-83.2 6.5l-5 1.7-5 2c-1.6.6-3.3 1.2-5 2l-4.8 2.2-4.8 2.4-4.7 2.5-4.6 2.7-4.5 2.8-4.5 3-4.3 3c-1.5 1.1-3 2.1-4.3 3.2l-4.1 3.3c-1.4 1.1-2.8 2.3-4 3.5l-4 3.5-3.8 3.7-3.7 3.7a184.3 184.3 0 0 0-41.7 69.3 196.8 196.8 0 0 0-8.2 36.7Zm270.6 173.5Zm77-104.1-1.6 5-1.8 4.9-1 2.4-1 2.3-1.8 4.8a186.6 186.6 0 0 1-29 48.7c-3 3.6-6.3 7-9.4 10.4l-5 4.8c-1.6 1.7-3.4 3.1-5 4.6a213.7 213.7 0 0 1-11.6 9.2c-2 1.4-3.9 2.8-6 4.1l-6.2 4-6.6 3.7c-2.2 1.3-4.6 2.4-7 3.6l5.2-2.9c2-1 4-2.4 6-3.5a72.2 72.2 0 0 0 8.8-6l-2.7 1.8 2.9-2-.2.2a184.6 184.6 0 0 0 78-124.8c-.8 9.9-2.6 17.8-5 24.7ZM320.5 79.7A177.2 177.2 0 0 1 350 183.4a186.3 186.3 0 0 0-6.7-51.9 180.5 180.5 0 0 0-20-46.5l3 4.7-1.2-2.1-1.4-2.1-2.6-4.2-5.6-8-6.1-7.7-4.8-5.5c5.8 6 11.1 12.5 16 19.6ZM185.7 2.2l8.5.6 6.9.8a31.9 31.9 0 0 1 5.7.9 136 136 0 0 1 26.8 7c13 5 25.2 11.2 36.2 18.2 11 7.1 20.9 15.2 29.2 24 3.9 4.1 2.7 3.2.6 1.2l3.2 3.4-4.2-4.2-4.4-4 5.4 4.8A172.2 172.2 0 0 0 194.4 3.2l6 .4-6.2-.8-8.5-.5-8.3-.2 8.3.1Z"/>
        <path fill="#FF8264"
              d="m222.3 354 .8-.2-2.6.7 1.8-.4Zm85.3-73.8a166 166 0 0 1-34.2 34c4.2-2.9 8.3-6 12.3-9 5.2-5.4 13.8-14.2 21.9-25Zm-239.8 32a162.6 162.6 0 0 0 70.8 37c3.7 1 7.5 1.5 11.3 2.2 2 .4 3.8.5 5.7.8l5.8.7a168 168 0 0 1-93.6-40.7Zm169.7 22-4.3 1.6-4.3 1.4c-2.9 1-5.8 1.9-8.8 2.7 3-.8 6-1.5 8.9-2.4l4.3-1.4 4.3-1.5c-.2-.1-1.1 0-.1-.5ZM187.3 345c-2.2.2-4.5.2-6.7.2h-6.7l3 .2c.9 0 1.7.2 2.5.3 2.6-.3 5.2-.3 7.9-.7Zm-88.7-20.6 8 4.3c.7.4 2 .8 3.5 1.4-3.3-1.5-6.5-3.2-9.7-4.8l-4.7-2.7-4.6-2.8L93 321l2 1.1 3.7 2.3Z"/>
        <path fill="#FFAA64"
              d="M211.3 122.1c2.3 5 5 9.7 7.6 14.5 8.6 15 17.2 30.3 12 56.1 0 .7-.5 1.1-1 1.3-6 2-.2 0-2.9.9-28 9-63.6 20.2-92.3 5a38.4 38.4 0 0 1-7 10c-3.7 3.8-8.8 7-16.4 8a1.7 1.7 0 0 1-.5-3.2 25 25 0 0 0 14.6-7.1 38.3 38.3 0 0 0 7.1-10.9c3.8-7.7 12.4-8.2 12.4-8.2a1.7 1.7 0 1 1 .2 3.3s-5.7.3-8.9 5.1c27.5 14.7 62.3 3.6 89.8-5.2l2-.6c4.4-24-3.8-38.5-12-52.9-2.4-4.3-4.8-8.5-6.9-13a32 32 0 0 1-12.2 9.2 34.9 34.9 0 0 1 .4 13.8c-2 11-.5 21.8-.3 23a1.7 1.7 0 0 1-2.8 1.6c-24.1-24.2-46.1-12-47.3-11.4l-.1.1h-.1a23.5 23.5 0 0 0-8.6 6.5 1.7 1.7 0 0 1-2.6-2 31.7 31.7 0 0 1 8-6.5 29.3 29.3 0 0 0-14.5-9.8c-8.7-2.6-17-1.3-19.4.4a1.7 1.7 0 0 1-1.9-2.8c3-2 12.6-3.7 22.3-.8a32.5 32.5 0 0 1 16.5 11.4c5.2-2.5 25-9.7 46.7 9.4a75 75 0 0 1 .9-19.7 27.7 27.7 0 0 0-.4-12 32 32 0 1 1 17.6-13.5Zm18.2-15.5a1.1 1.1 0 0 1 1.7-1.4l8.1 10.5a1.1 1.1 0 0 1-1.7 1.3l-8.1-10.4Zm15.4 20a1.1 1.1 0 1 1 1.8-1.4l2 2.7a1.1 1.1 0 0 1-1.7 1.3l-2-2.7Zm-19.1-4a1.1 1.1 0 0 1 1.7-1.4l6.3 8a1.1 1.1 0 1 1-1.7 1.4l-6.3-8Zm12 15.4a1.1 1.1 0 0 1 1.7-1.4l1.6 2.1a1.1 1.1 0 0 1-1.7 1.4l-1.6-2.1Zm-53.5-39.5a6.5 6.5 0 0 1 4.6 11 6.5 6.5 0 0 1-11-4.5 6.5 6.5 0 0 1 6.4-6.5Zm3 3.5a4.3 4.3 0 0 0-6 0 4.3 4.3 0 0 0 3 7.2 4.3 4.3 0 0 0 4.3-4.2c0-1.2-.5-2.3-1.2-3Zm-3-17.8a20.7 20.7 0 0 1 14.7 35.5 20.7 20.7 0 0 1-35.5-14.7 20.7 20.7 0 0 1 20.8-20.8Zm13.2 7.6a18.5 18.5 0 0 0-31.7 13.2 18.5 18.5 0 0 0 31.7 13.1 18.5 18.5 0 0 0 0-26.3Zm7.1-7a28.6 28.6 0 0 0-49 20.2 28.6 28.6 0 0 0 49 20.2 28.6 28.6 0 0 0 0-40.5Z"/>
        <path fill="#FF8264"
              d="M122.5 252.2v5c0 11.5-8.5 20-21.6 20a22 22 0 0 1-22.9-22c0-12.7 9.7-22.2 22.4-22.2 10.9 0 18.1 6.1 20.7 13.2l-9.3 2.7c-2-3.9-5.3-6.4-11.3-6.4-7.3 0-12.3 5.7-12.3 12.5 0 6.7 4.6 12.9 13.5 12.9 6.1 0 9.5-3.6 10.2-7h-11.1v-8.7h21.7Zm25.7-6.8h10.4L140.2 289h-10l5.6-13.5h.4-.4L122 245.4h10.6l8.1 18.9 7.6-19Zm48.9-.9c7.3 0 12.3 4.8 12.3 13.6v18.3h-9.7v-16.1c0-4.1-1.3-6.8-5-6.8-3.8 0-5.3 2.8-5.3 7.5v15.4h-9.8v-16.1c0-4.1-1.2-6.8-4.9-6.8-3.8 0-5.4 2.8-5.4 7.5v15.4h-9.7v-31h9.7v3c2-2.2 4.9-3.9 8.6-3.9 4.2 0 7.1 1.6 9 4.2 2.1-2.3 5.4-4.2 10.2-4.2Zm59.3 31.9-3-8.2h-18l-3 8.2h-10.3l15.7-42.5H251l15.8 42.5h-10.4Zm-17.7-17h11.5l-5.8-15.9-5.7 16Zm29.1 17v-42.5H278v42.5h-10.2Z"/>
    </g>
    <defs>
        <clipPath id="a">
            <path fill="#fff" d="M0 0h356.7v362.5H0z"/>
        </clipPath>
    </defs>
</svg>