<svg xmlns="http://www.w3.org/2000/svg" fill="none" viewBox="0 0 146 39">
    <mask id="a" x="0" y="0" style="mask-type:alpha">
        <path fill="#F58021"
              d="M23.7 0h6L18.3 18l-.4.8v10.6h-5V18.8L.9 0h6l8.3 13.3L23.6 0h.1Zm13.4 12.8c-1.7 0-3.1.6-4.3 1.8a6 6 0 0 0-1.7 4.3c0 1.7.6 3 1.7 4.2a5 5 0 0 0 2 1.4 6.7 6.7 0 0 0 4.6 0c.7-.3 1.4-.8 2-1.4a5.5 5.5 0 0 0 1.8-4.2c0-1.7-.6-3.1-1.8-4.3a5.9 5.9 0 0 0-4.3-1.8Zm0-5c1.5 0 3 .3 4.4.9C42.8 9.2 44 10 45 11c1 1 1.8 2.3 2.4 3.6A11.5 11.5 0 0 1 45 26.7c-1 1-2.2 1.8-3.5 2.4a10.6 10.6 0 0 1-8.7-.1c-1.3-.5-2.5-1.3-3.5-2.3-1-1-1.8-2.2-2.4-3.5-.6-1.3-.9-2.8-.9-4.3s.3-3 .9-4.3a13 13 0 0 1 2.4-3.6c1-1 2.2-1.8 3.5-2.3 1.3-.6 2.8-.9 4.3-.9Zm37 .6v18.9c0 1.5-.3 3-.9 4.3a11.7 11.7 0 0 1-5.9 5.9c-1.3.6-2.8.9-4.3.9a10.8 10.8 0 0 1-6.7-2.3l3.7-3.6a5.7 5.7 0 0 0 7.3-1 5.6 5.6 0 0 0 1.7-4.1V19a6 6 0 0 0-1.7-4.3 5.9 5.9 0 0 0-4.3-1.8c-1.7 0-3.1.6-4.4 1.7a5.9 5.9 0 0 0-1.8 4.3c0 1.7.6 3 1.8 4.2a5.9 5.9 0 0 0 4.3 1.8c.8 0 1.6-.1 2.3-.4l1.8 4.7c-1.2.5-2.5.8-4 .8h-.1c-1.5 0-3-.3-4.3-1-1.3-.5-2.5-1.3-3.5-2.3a11.7 11.7 0 0 1-3.4-7.8 11.8 11.8 0 0 1 6.4-10.4 11.7 11.7 0 0 1 8-.2c1.1.5 2.1 1 3 1.6V8.4h5Zm21 0h5v21h-5V18.9c0-1.7-.6-3.1-1.8-4.3a5.7 5.7 0 0 0-4.3-1.8c-.8 0-1.6.2-2.3.5a8 8 0 0 0-2 1.3 6 6 0 0 0-1.7 4.3c0 1.7.6 3 1.8 4.2.5.7 1.2 1.1 2 1.4.7.3 1.4.4 2.3.4.8 0 1.5-.1 2.2-.4l1.8 4.5a10 10 0 0 1-8.7 0 9.3 9.3 0 0 1-3.4-2.3 11.5 11.5 0 0 1-3-7.8 11.5 11.5 0 0 1 3-7.9c1-1 2-1.8 3.4-2.3a11 11 0 0 1 7.9-.3c1 .5 2 1 2.8 1.6V8.4ZM122.8 0l13.3 29.4h-5.5l-2.3-5-2.3-5-6-13.3-5.9 13.2h7.7l2.2 5h-12.2l-2.2 5.1H104L117.3 0h5.5Zm22.5 0v29.4h-5V0h5Z"/>
    </mask>
    <g mask="url(#a)">
        <path fill="url(#b)" d="M1-8h144v47H1V-8Z"/>
    </g>
    <defs>
        <linearGradient id="b" x1="1" x2="28.7" y1="-8" y2="77" gradientUnits="userSpaceOnUse">
            <stop stop-color="#F52173"/>
            <stop offset="1" stop-color="#F79648"/>
        </linearGradient>
    </defs>
</svg>